<svg viewBox="0 0 160 160" fill="none" xmlns="http://www.w3.org/2000/svg">
<path d="M24.9832 23.6966C24.3899 23.5414 23.728 23.4048 23.2412 23.0108C22.6532 22.5347 22.4782 21.9611 22.3946 21.2341C22.2579 20.0444 22.458 14.7217 23.1338 13.9355C23.4821 13.5303 23.9835 13.5062 24.4771 13.4746C31.4187 13.4451 38.3707 13.65 45.3126 13.724L88.2096 14.1993C100.141 14.2963 112.072 14.4573 124.002 14.6825C127.758 14.7764 131.552 14.7261 135.301 14.9371C135.77 14.9635 136.219 14.9999 136.642 15.2239C137.122 15.4786 137.461 15.8934 137.597 16.4211C137.914 17.6451 137.77 22.8873 137.128 23.895C136.831 24.3606 136.35 24.4825 135.845 24.6044C135.729 26.3062 135.777 28.0341 135.77 29.7401C135.759 32.7019 135.752 35.6692 135.688 38.63C135.357 52.4178 134.914 66.2025 134.359 79.983C134.158 86.1884 134.088 92.4064 133.652 98.6011C133.567 99.8112 133.442 101.016 133.343 102.224C133.269 103.12 133.24 104.04 133.089 104.925C133.016 105.355 132.899 105.765 132.579 106.081C132.255 106.402 131.714 106.495 131.277 106.568C129.684 106.836 127.972 106.875 126.358 106.972C121.684 107.251 117.038 107.256 112.359 107.263L81.0979 107.184C80.9932 108.218 81.0096 109.255 81.0055 110.293C83.2319 112.837 85.3882 115.438 87.5887 118.002L97.7563 129.641C100.292 132.501 102.791 135.406 105.351 138.241C106.397 139.399 107.415 140.582 108.468 141.733C109.145 142.473 109.889 143.188 110.523 143.962C110.684 144.159 110.776 144.369 110.792 144.623C110.821 145.062 110.666 145.523 110.365 145.845C110.093 146.135 109.702 146.312 109.302 146.303C108.848 146.292 108.497 146.057 108.171 145.763C107.497 145.156 106.906 144.423 106.293 143.754C104.79 142.114 103.338 140.437 101.861 138.774C97.8382 134.326 93.8455 129.852 89.8829 125.35C86.9476 122.011 84.1301 118.531 81.1004 115.281C81.1793 117.819 81.1335 120.372 81.1565 122.913L81.328 133.997L81.4091 140.751C81.4227 141.865 81.5379 143.092 81.4149 144.197C81.378 144.527 81.2212 144.82 80.9988 145.063C80.681 145.412 80.2191 145.629 79.7458 145.634C79.3419 145.636 78.9538 145.477 78.668 145.192C78.3216 144.851 78.1808 144.375 78.1265 143.904C78.0133 142.924 78.1146 141.842 78.1254 140.852C78.1346 139.311 78.1279 137.771 78.1055 136.231L78.0126 115.057C74.7002 118.559 71.5872 122.265 68.3526 125.84C64.546 130.047 60.6119 134.107 56.6929 138.205C54.7494 140.26 52.7688 142.279 50.7519 144.262C50.1215 144.88 49.5062 145.64 48.8043 146.171C48.4477 146.441 48.0821 146.51 47.6555 146.603C47.3646 146.518 47.0854 146.423 46.8329 146.25C46.4469 145.985 46.136 145.583 46.0649 145.112C45.986 144.59 46.153 144.15 46.4896 143.76C47.2318 142.898 48.1076 142.105 48.9047 141.293L54.2972 135.803C59.8587 130.043 65.279 124.148 70.5532 118.124C72.0579 116.437 73.5476 114.737 75.0221 113.024C75.8787 112.036 76.7815 111.066 77.5562 110.013C77.5513 109.044 77.5619 108.074 77.5877 107.106C69.9229 107.064 62.2587 106.938 54.5966 106.729C45.6879 106.577 36.7804 106.365 27.8746 106.092C26.1662 106.028 24.1735 106.015 22.9407 104.626C22.4007 104.017 22.224 103.308 22.2241 102.51C22.2249 97.9833 22.5474 93.4245 22.7329 88.8995C23.1685 79.6239 23.5182 70.3442 23.7821 61.062C23.8585 56.7305 23.8491 52.3978 23.7541 48.0666C23.6607 44.1391 23.4943 40.1876 23.6519 36.2606C23.8213 32.0436 24.8076 27.9095 24.9832 23.6966ZM26.5799 17.5091C26.5329 17.9975 26.4755 18.4853 26.4727 18.9762C31.9969 19.0033 37.5196 18.862 43.0432 18.8456C57.7926 18.7869 72.5421 18.8389 87.2905 19.0016C97.1485 19.2126 107.004 19.5222 116.856 19.9301L133.496 20.5144L133.626 20.487C133.837 20.03 133.71 19.0776 133.707 18.5626L68.6538 17.8278C54.6351 17.7316 40.5941 17.8681 26.5799 17.5091ZM39.4601 22.9278C35.7182 23.0489 32.0077 23.6756 28.2687 23.6892C28.3537 49.7351 27.7837 75.779 26.5591 101.796C57.3602 102.939 88.1826 103.405 119.004 103.193C120.932 103.191 122.86 103.163 124.787 103.11C125.779 103.087 126.863 103.14 127.841 102.975C128.373 102.884 128.964 102.701 129.346 102.298C129.59 102.042 129.604 101.223 129.629 100.871C129.872 97.4706 129.85 94.01 129.94 90.6001L130.461 73.475C131.13 57.2295 131.565 40.9755 131.765 24.7175C109.046 23.5451 86.301 22.9456 63.5516 22.9195C58.8223 22.8917 54.0927 22.8881 49.3633 22.9089C46.064 22.9048 42.7588 22.8559 39.4601 22.9278Z" fill="#141413"/>
<path d="M26.4727 18.9762C26.4755 18.4853 26.5328 17.9975 26.5798 17.509C40.5941 17.8681 54.635 17.7315 68.6537 17.8278L133.707 18.5626C133.71 19.0776 133.837 20.03 133.626 20.487L133.496 20.5143L116.856 19.9301C107.004 19.5222 97.1484 19.2126 87.2905 19.0015C72.542 18.8389 57.7925 18.7868 43.0431 18.8456C37.5195 18.862 31.9969 19.0033 26.4727 18.9762Z" fill="white"/>
<path d="M28.2686 23.6892C32.0077 23.6756 35.7181 23.0489 39.46 22.9278C42.7588 22.856 46.0639 22.9049 49.3633 22.9089C54.0927 22.8881 58.8222 22.8917 63.5516 22.9196C86.301 22.9456 109.046 23.5452 131.765 24.7175C131.565 40.9755 131.13 57.2295 130.461 73.475L129.94 90.6002C129.85 94.01 129.872 97.4706 129.629 100.871C129.604 101.223 129.59 102.042 129.346 102.298C128.963 102.701 128.373 102.884 127.841 102.975C126.863 103.14 125.779 103.087 124.787 103.11C122.86 103.163 120.932 103.191 119.004 103.193C88.1825 103.405 57.3602 102.939 26.5591 101.796C27.7836 75.7791 28.3536 49.7352 28.2686 23.6892ZM127.647 36.9074C120.83 37.4264 114.01 37.91 107.188 38.3581C105.032 38.5099 102.877 38.6728 100.722 38.8467C99.8025 38.9219 98.8269 38.931 97.9191 39.0744C99.2921 40.3616 100.584 41.7213 101.916 43.0494C102.912 44.0417 103.976 44.9858 104.906 46.0405C102.862 47.7231 100.98 49.6047 99.0191 51.381L86.5975 62.4652C84.47 64.3522 82.4085 66.3296 80.2056 68.1292C78.6631 66.5144 77.1874 64.8438 75.6667 63.2095L69.6689 56.8633C68.3002 55.406 66.9541 53.9197 65.5425 52.5039C62.3881 54.9733 59.3996 57.6933 56.3303 60.2725L38.9883 74.802C36.3458 77.0266 33.755 79.391 31.025 81.5014L30.801 96.7488L30.7978 99.1899C32.691 99.2206 34.6036 99.4045 36.4935 99.3564C38.7741 97.5808 40.8849 95.5514 43.1086 93.6983L66.8947 73.6325C68.7413 75.5169 70.5713 77.4175 72.3844 79.3342C74.3733 81.4663 76.3083 83.6258 78.3872 85.6731C79.266 85.0189 80.0681 84.2575 80.8911 83.5353C82.6213 82.0164 84.3152 80.4616 86.0235 78.9186L104.163 62.3089L109.625 57.3125C110.567 56.4463 111.448 55.5086 112.45 54.7111C114.994 56.985 117.319 59.5142 119.723 61.9352C120.175 61.0299 120.468 60.0214 120.792 59.0642L122.34 54.3824C123.088 52.1063 123.895 49.8533 124.664 47.5845C125.463 45.226 126.22 42.8603 127.078 40.5213C127.288 39.9471 128.271 37.4394 128.285 37.0211L128.206 36.892C128.001 36.8605 127.85 36.8783 127.647 36.9074Z" fill="white"/>
<path d="M97.9191 39.0744C98.8269 38.931 99.8025 38.9219 100.722 38.8467C102.877 38.6728 105.032 38.5099 107.188 38.3581C114.011 37.91 120.83 37.4264 127.647 36.9074C127.85 36.8783 128.001 36.8605 128.206 36.8921L128.285 37.0211C128.271 37.4394 127.288 39.9471 127.078 40.5213C126.22 42.8603 125.463 45.226 124.664 47.5846C123.895 49.8533 123.088 52.1063 122.34 54.3824L120.792 59.0642C120.468 60.0214 120.175 61.0299 119.723 61.9352C117.319 59.5142 114.994 56.985 112.45 54.7111C111.448 55.5086 110.567 56.4463 109.625 57.3125L104.163 62.3089L86.0235 78.9186C84.3152 80.4616 82.6213 82.0164 80.8911 83.5353C80.0682 84.2575 79.266 85.0189 78.3872 85.6731C76.3083 83.6258 74.3733 81.4663 72.3844 79.3342C70.5713 77.4175 68.7413 75.5169 66.8947 73.6325L43.1086 93.6983C40.8849 95.5514 38.7741 97.5808 36.4935 99.3564C34.6036 99.4046 32.691 99.2206 30.7979 99.1899L30.801 96.7488L31.025 81.5014C33.755 79.391 36.3458 77.0266 38.9883 74.8021L56.3304 60.2725C59.3996 57.6933 62.3882 54.9733 65.5425 52.5039C66.9541 53.9197 68.3002 55.406 69.6689 56.8633L75.6668 63.2096C77.1874 64.8438 78.6632 66.5144 80.2057 68.1292C82.4085 66.3296 84.47 64.3522 86.5975 62.4652L99.0191 51.381C100.98 49.6047 102.862 47.7231 104.906 46.0405C103.976 44.9858 102.912 44.0417 101.916 43.0494C100.584 41.7213 99.2921 40.3616 97.9191 39.0744Z" fill="#25904A"/>
</svg>
