<svg viewBox="0 0 160 160" fill="none" xmlns="http://www.w3.org/2000/svg">
<path d="M22.6824 42.2124C22.6777 40.1114 22.6471 38.0108 22.5904 35.9107C22.5655 34.8424 22.4159 33.6491 22.5659 32.5953C22.6155 32.2463 22.7788 31.8994 23.0245 31.6446C23.4057 31.2485 24.1537 31.2085 24.6798 31.1836C25.9773 31.1225 27.283 31.1433 28.582 31.1124L38.7007 30.9088L58.2234 30.6064L83.2866 30.5899C97.174 30.523 111.049 29.8042 124.94 30.0516C127.734 30.1014 131.78 29.963 133.861 32.1108C134.678 32.9547 135.084 34.0707 135.31 35.2041C135.762 37.4816 135.709 39.8775 135.833 42.1902C135.997 45.2591 136.245 48.3228 136.404 51.3925C136.977 63.3074 137.296 75.233 137.361 87.1614C137.359 91.2124 137.386 95.2632 137.444 99.3135C137.462 103.122 137.444 106.928 137.671 110.731C137.323 111.279 137.766 126.059 137.406 128.328C137.349 128.692 137.243 129.164 136.992 129.449C136.852 129.608 136.597 129.611 136.397 129.636C134.446 129.884 131.535 129.664 129.489 129.623L115.398 129.293C101.229 129.085 87.061 128.799 72.8949 128.435L41.2788 127.698L30.8024 127.451C29.4759 127.416 27.4276 127.493 26.2055 127.329C25.9976 127.301 25.7616 127.215 25.6034 127.073C25.309 126.81 25.3266 126.32 25.3004 125.946C25.1991 124.498 25.1884 123.04 25.1262 121.59C24.9693 118.225 24.8404 114.859 24.7395 111.492L23.916 84.4988L23.1505 57.2946L22.892 47.9064C22.8298 46.0058 22.6787 44.116 22.6824 42.2124ZM116.34 33.2853C106.687 33.4677 97.0256 33.7649 87.3709 33.8568L54.6687 33.9094C45.1568 34.0419 35.6457 34.2358 26.1363 34.4914C26.096 40.1528 26.3179 45.8285 26.3907 51.4905C31.9135 51.4436 37.4365 51.4338 42.9593 51.4613L133.006 50.5235C133.002 48.9278 132.907 47.3303 132.822 45.7372C132.645 42.4021 132.637 37.8539 130.141 35.3311C129.504 34.6899 128.724 34.2082 127.866 33.9253C125.442 33.1113 121.195 33.261 118.556 33.2672C117.818 33.2689 117.078 33.2653 116.34 33.2853ZM124.516 53.1327C91.827 53.6474 59.1348 53.9461 26.4418 54.0286C26.5938 56.1833 26.5855 58.3491 26.6384 60.5077L26.9196 70.7477L27.7734 99.3149L28.2988 117.612C28.3609 119.441 28.3601 121.278 28.4505 123.104C28.4634 123.361 28.4538 123.722 28.584 123.946C29.763 124.301 36.8257 124.26 38.4927 124.284C42.0029 124.388 45.5137 124.474 49.0248 124.541L71.882 125.116L134.312 126.557L133.853 80.1549C133.712 71.1328 133.485 62.1124 133.17 53.0947C130.285 53.0713 127.401 53.0839 124.516 53.1327Z" fill="#141413"/>
<path d="M26.1362 34.4915C35.6456 34.2358 45.1567 34.0419 54.6686 33.9094L87.3707 33.8568C97.0254 33.7649 106.686 33.4677 116.34 33.2854C117.078 33.2654 117.818 33.269 118.556 33.2672C121.195 33.261 125.442 33.1113 127.866 33.9254C128.724 34.2082 129.504 34.6899 130.14 35.3312C132.637 37.854 132.645 42.4021 132.822 45.7372C132.907 47.3304 133.002 48.9279 133.006 50.5235L42.9592 51.4613C37.4364 51.4338 31.9134 51.4436 26.3906 51.4905C26.3178 45.8285 26.0959 40.1529 26.1362 34.4915ZM37.3962 37.9805C35.0575 38.376 33.4718 40.5787 33.8387 42.9219C34.2057 45.2654 36.3889 46.8779 38.7365 46.5394C40.2807 46.3169 41.586 45.2812 42.1537 43.8277C42.7214 42.3744 42.4635 40.728 41.4789 39.5179C40.494 38.3076 38.9346 37.7204 37.3962 37.9805ZM51.4451 37.9963C49.1904 38.2744 47.5912 40.3321 47.8779 42.5857C48.1646 44.8393 50.2284 46.4308 52.4809 46.1355C54.7214 45.8418 56.3025 43.7916 56.0171 41.5501C55.732 39.3085 53.6878 37.7196 51.4451 37.9963ZM65.1534 38.0185C62.9365 38.4726 61.5051 40.6349 61.9531 42.8529C62.4011 45.071 64.5595 46.5083 66.7787 46.0665C69.0067 45.6227 70.4507 43.4541 70.0011 41.2276C69.5512 39.0008 67.3787 37.5627 65.1534 38.0185ZM118.972 40.5583C113.224 40.7158 107.503 41.0546 101.749 40.9951C96.2693 40.9383 90.8218 40.4747 85.3348 40.7182C84.4112 40.7591 82.7207 40.6594 82.0681 41.3682C81.8398 41.6162 81.6884 41.9596 81.7043 42.3004C81.7186 42.6018 81.8598 42.8726 82.0864 43.0702C82.6621 43.5727 83.4159 43.4493 84.1101 43.3902C89.6901 42.9101 95.3793 43.4008 100.967 43.5487C105.602 43.6715 110.301 43.4972 114.931 43.2635C116.245 43.1971 119.564 43.2038 120.629 42.9129C120.912 42.8354 121.194 42.6729 121.378 42.4397C121.551 42.2197 121.634 41.9316 121.585 41.6543C121.521 41.2958 121.288 41.0038 120.987 40.8097C120.371 40.4126 119.664 40.5097 118.972 40.5583Z" fill="white"/>
<path d="M38.7367 46.5394C36.389 46.8779 34.2059 45.2654 33.8389 42.9219C33.472 40.5787 35.0576 38.376 37.3964 37.9805C38.9348 37.7204 40.4942 38.3076 41.479 39.5179C42.4637 40.728 42.7215 42.3744 42.1539 43.8277C41.5862 45.2812 40.2809 46.3169 38.7367 46.5394ZM37.8367 40.4652C36.8417 40.6294 36.1673 41.568 36.3292 42.5634C36.4912 43.5588 37.4283 44.2352 38.424 44.0755C39.4231 43.9154 40.1022 42.9746 39.9397 41.976C39.7772 40.9774 38.8348 40.3004 37.8367 40.4652Z" fill="#141413"/>
<path d="M52.481 46.1355C50.2285 46.4308 48.1647 44.8392 47.878 42.5856C47.5913 40.332 49.1905 38.2744 51.4452 37.9963C53.6878 37.7195 55.732 39.3085 56.0172 41.55C56.3025 43.7916 54.7214 45.8417 52.481 46.1355ZM51.4916 40.5763C50.6633 40.8347 50.1995 41.7138 50.4538 42.5433C50.708 43.3728 51.5845 43.8411 52.4155 43.5913C53.2524 43.3394 53.7247 42.455 53.4688 41.6194C53.2127 40.7839 52.3258 40.3159 51.4916 40.5763Z" fill="#141413"/>
<path d="M66.7788 46.0665C64.5595 46.5083 62.4011 45.071 61.9531 42.8529C61.5052 40.6349 62.9366 38.4726 65.1534 38.0185C67.3788 37.5627 69.5513 39.0008 70.0011 41.2276C70.4508 43.4541 69.0067 45.6227 66.7788 46.0665ZM65.553 40.5885C65.0206 40.748 64.6153 41.1815 64.4917 41.7233C64.3681 42.2651 64.5453 42.8315 64.9558 43.2062C65.3663 43.5807 65.9464 43.7057 66.4747 43.5333C67.278 43.2713 67.7211 42.4119 67.4688 41.6055C67.2163 40.7991 66.3623 40.3457 65.553 40.5885Z" fill="#141413"/>
<path d="M38.424 44.0755C37.4282 44.2352 36.4912 43.5587 36.3292 42.5633C36.1673 41.568 36.8417 40.6294 37.8367 40.4651C38.8348 40.3003 39.7771 40.9773 39.9396 41.9759C40.1021 42.9745 39.4231 43.9153 38.424 44.0755Z" fill="white"/>
<path d="M52.4156 43.5913C51.5847 43.8411 50.7081 43.3728 50.4539 42.5433C50.1997 41.7138 50.6634 40.8347 51.4917 40.5763C52.3259 40.316 53.2128 40.7839 53.4689 41.6194C53.7248 42.455 53.2525 43.3394 52.4156 43.5913Z" fill="white"/>
<path d="M66.4748 43.5333C65.9465 43.7057 65.3664 43.5807 64.9559 43.2061C64.5454 42.8314 64.3682 42.265 64.4918 41.7233C64.6154 41.1814 65.0207 40.748 65.5531 40.5885C66.3625 40.3457 67.2164 40.7991 67.4689 41.6055C67.7212 42.4119 67.2781 43.2713 66.4748 43.5333Z" fill="white"/>
<path d="M84.1103 43.3902C83.4161 43.4492 82.6623 43.5727 82.0865 43.0702C81.86 42.8725 81.7187 42.6017 81.7045 42.3003C81.6886 41.9596 81.84 41.6161 82.0683 41.3681C82.7209 40.6594 84.4114 40.7591 85.335 40.7181C90.822 40.4747 96.2695 40.9383 101.749 40.995C107.503 41.0546 113.224 40.7158 118.972 40.5583C119.664 40.5097 120.371 40.4125 120.987 40.8097C121.288 41.0038 121.521 41.2958 121.585 41.6542C121.634 41.9316 121.551 42.2197 121.378 42.4397C121.194 42.6728 120.912 42.8353 120.629 42.9128C119.564 43.2038 116.245 43.1971 114.931 43.2635C110.301 43.4972 105.602 43.6714 100.967 43.5486C95.3795 43.4008 89.6903 42.91 84.1103 43.3902Z" fill="#141413"/>
<path d="M26.4419 54.0286C59.1349 53.9461 91.8271 53.6474 124.516 53.1327C127.401 53.0839 130.285 53.0713 133.17 53.0947C133.485 62.1124 133.713 71.1329 133.853 80.1549L134.312 126.557L71.882 125.116L49.0249 124.541C45.5138 124.474 42.003 124.388 38.4928 124.284C36.8258 124.26 29.7631 124.301 28.5841 123.946C28.4539 123.722 28.4635 123.361 28.4506 123.104C28.3602 121.278 28.361 119.441 28.2989 117.612L27.7735 99.3149L26.9197 70.7477L26.6385 60.5077C26.5856 58.3491 26.5939 56.1833 26.4419 54.0286ZM97.2845 59.6138C93.1683 59.6357 89.0552 59.845 84.9578 60.2413C83.8116 60.3491 82.5019 60.368 81.3933 60.6536C81.0742 60.7358 80.7044 60.8583 80.4602 61.0907C80.15 61.3855 80.1383 61.9607 80.1436 62.3568C80.1592 63.5275 80.3581 64.7447 80.4425 65.9169C80.6633 68.8286 80.8399 71.7435 80.9724 74.6605C81.0835 77.3475 81.1664 80.0357 81.2214 82.7246C81.2444 84.0863 81.1006 85.5322 81.2764 86.8804C81.3414 87.3791 81.6017 87.815 81.9719 88.1513C82.2817 88.4325 82.6703 88.4125 83.0644 88.4291C85.7186 88.5408 88.4391 88.2999 91.0997 88.268L107.705 88.1165C111.437 88.1129 115.168 88.0672 118.899 87.9794C120.409 87.9446 122.001 88.0199 123.499 87.8571C123.825 87.8216 124.34 87.7711 124.596 87.5416C124.842 87.3207 124.946 86.8885 124.991 86.5754C125.117 85.711 125.014 84.7469 124.989 83.8752C124.947 82.1575 124.878 80.4407 124.782 78.7252C124.586 75.2613 124.29 71.7985 124.126 68.3339C124.021 66.1104 124.119 63.4336 123.753 61.2774C123.713 61.0479 123.52 60.8654 123.336 60.7382C123.076 60.5591 122.787 60.5269 122.481 60.4961C120.385 60.2854 118.203 60.3088 116.094 60.2033C112.256 60.0113 108.403 59.7614 104.561 59.661C102.136 59.6007 99.7102 59.5849 97.2845 59.6138ZM58.8764 60.3182L43.1258 60.563C40.9286 60.6046 38.3456 60.4741 36.1975 60.7002C35.7249 60.7499 35.2569 60.8149 34.9047 61.1604C34.3541 61.7002 34.3192 62.3232 34.3316 63.0477C34.3661 65.0794 34.5138 67.1194 34.626 69.1483L35.0971 77.9174L35.4478 84.095C35.5016 85.0639 35.4771 86.0818 35.618 87.0394C35.6563 87.2988 35.7281 87.5439 35.9164 87.7369C36.1674 87.9941 36.7085 88.0441 37.0442 88.0786C38.208 88.1985 39.4535 88.1211 40.6253 88.128C42.7939 88.1474 44.9625 88.1541 47.1311 88.1483L61.4588 88.0597L67.0186 88.0719C68.0269 88.0744 69.0553 88.1172 70.0619 88.0575C70.4497 88.0346 70.8413 88.0429 71.1299 87.7554C71.7222 87.1655 71.4753 85.5364 71.4527 84.7414C71.2578 79.5238 71.0288 74.3075 70.7653 69.093C70.6833 67.3079 70.6399 65.521 70.5416 63.7368C70.5027 63.0311 70.5111 62.2647 70.3969 61.5707C70.3494 61.2824 70.2381 61.0288 70.0297 60.8202C69.8878 60.6782 69.7119 60.5646 69.5467 60.4513C66.0158 60.1899 62.417 60.2941 58.8764 60.3182ZM105.867 94.3029L91.8935 94.489C88.9277 94.5254 85.6299 94.3532 82.7238 94.89C82.2819 94.9716 81.9453 95.0894 81.6267 95.4196C81.311 95.7471 81.1791 96.0719 81.1355 96.5204C81.0313 97.5913 81.1311 98.7277 81.1688 99.8029L81.3697 105.145L81.6756 114.089C81.7155 115.399 81.7046 116.718 81.7749 118.025C81.8028 118.544 81.9266 119.24 82.3192 119.616C82.5938 119.879 83.1663 119.894 83.5311 119.919C85.5844 120.063 87.7302 119.924 89.7942 119.924C93.473 119.944 97.1516 119.985 100.83 120.048L116.272 120.319C117.687 120.351 119.102 120.39 120.516 120.437C121.492 120.469 122.511 120.563 123.481 120.449C123.938 120.395 124.199 120.243 124.524 119.923C124.734 119.716 124.903 119.473 124.953 119.177C125.18 117.823 125.022 115.956 125.018 114.565C125.001 110.842 124.959 107.12 124.892 103.398L124.772 98.1888C124.748 97.335 124.83 96.2069 124.596 95.3877C124.519 95.121 124.276 94.8235 124.073 94.6414C123.77 94.3694 123.298 94.3299 122.907 94.2943C121.098 94.1293 119.17 94.2513 117.349 94.2497C113.522 94.2433 109.694 94.261 105.867 94.3029ZM45.315 95.0008C43.1467 95.1305 38.4925 95.4399 37.0381 97.091C36.6925 97.4833 36.5553 98.0249 36.4819 98.53C36.1749 100.644 36.3692 102.99 36.4188 105.121C36.4831 107.892 36.4822 110.686 36.7521 113.446C36.9094 115.056 37.1955 117.125 38.5464 118.206C39.233 118.755 40.0836 119.058 40.9371 119.228C43.1592 119.672 45.5313 119.58 47.7903 119.725C52.4056 120.021 57.0353 120.651 61.6713 120.256C61.6913 120.254 61.7111 120.251 61.731 120.248C64.3089 120.02 67.8205 119.654 69.5514 117.496C70.1467 116.754 70.4206 115.622 70.5585 114.7C70.8466 112.772 70.7445 110.743 70.6969 108.799C70.623 105.784 70.5064 102.67 70.0997 99.6811C69.9139 98.3152 69.5902 96.9866 68.4066 96.123C67.8172 95.6929 66.9866 95.5154 66.2725 95.4224C63.9113 95.1147 61.1831 95.203 58.765 95.1349C54.298 95.0091 49.7794 94.7641 45.315 95.0008Z" fill="white"/>
<path d="M107.704 88.1164L91.0995 88.268C88.4389 88.2998 85.7184 88.5408 83.0642 88.4291C82.6701 88.4125 82.2815 88.4325 81.9717 88.1513C81.6015 87.815 81.3412 87.3791 81.2762 86.8803C81.1004 85.5322 81.2442 84.0863 81.2212 82.7245C81.1662 80.0356 81.0832 77.3475 80.9721 74.6605C80.8396 71.7434 80.6631 68.8286 80.4423 65.9169C80.3579 64.7447 80.159 63.5275 80.1434 62.3567C80.1381 61.9606 80.1498 61.3855 80.46 61.0906C80.7042 60.8583 81.074 60.7358 81.3931 60.6536C82.5017 60.368 83.8114 60.3491 84.9576 60.2413C89.055 59.845 93.1681 59.6356 97.2843 59.6138C99.7099 59.5849 102.136 59.6006 104.561 59.6609C108.403 59.7614 112.256 60.0113 116.094 60.2033C118.203 60.3088 120.385 60.2853 122.481 60.4961C122.787 60.5269 123.076 60.5591 123.336 60.7381C123.52 60.8653 123.713 61.0478 123.752 61.2774C124.119 63.4336 124.021 66.1103 124.126 68.3339C124.289 71.7984 124.586 75.2613 124.782 78.7252C124.878 80.4406 124.947 82.1575 124.988 83.8752C125.014 84.7469 125.117 85.7109 124.991 86.5753C124.946 86.8884 124.842 87.3206 124.596 87.5416C124.34 87.7711 123.825 87.8216 123.499 87.857C122.001 88.0198 120.408 87.9445 118.899 87.9794C115.168 88.0672 111.436 88.1128 107.704 88.1164ZM96.0203 62.1203C93.1335 62.2059 90.22 62.34 87.3471 62.6416C88.5707 63.3538 89.7357 64.1603 90.9356 64.9111C94.6168 67.2142 98.3807 69.6223 101.771 72.3417C103.188 71.398 104.696 70.6222 106.157 69.7527C109.972 67.548 113.985 65.5469 117.43 62.7697C115.352 62.79 113.289 62.5747 111.216 62.452C107.654 62.2158 104.086 62.088 100.517 62.0688C99.0243 62.0613 97.509 62.0238 96.0203 62.1203ZM82.6706 63.0713C82.7434 64.3169 82.8945 65.5581 82.9961 66.8019C83.1661 69.1511 83.3136 71.502 83.4384 73.8541C83.5946 77.4089 83.5132 80.9745 83.6717 84.5238C86.5675 81.9544 89.6235 79.6253 92.9659 77.6595C94.2506 76.8766 95.549 76.1167 96.8609 75.38C97.7762 74.8581 98.7342 74.3542 99.5915 73.7392C95.0921 70.5564 90.6023 67.4772 85.867 64.6488C85.1942 64.2469 83.9939 63.3663 83.3232 63.1286C83.1346 63.0619 82.9042 63.0744 82.706 63.0724C82.6942 63.0722 82.6825 63.0716 82.6706 63.0713ZM121.274 63.0789C120.269 63.5369 119.397 64.3625 118.53 65.037C117.61 65.753 116.653 66.447 115.677 67.0849C113.146 68.7384 110.466 70.1702 107.82 71.6274C106.456 72.3783 105.128 73.1931 103.747 73.9122C106.141 75.7116 108.559 77.4786 111.001 79.2127C113.777 81.0958 116.011 82.4167 119.107 83.7575C120.228 84.2431 121.405 84.6008 122.52 85.0931C122.542 83.1994 122.455 81.3025 122.362 79.4114C122.162 75.3269 121.792 71.2544 121.573 67.1711C121.538 66.5138 121.524 63.4497 121.337 63.1191L121.274 63.0789ZM101.639 75.4234C97.3 78.0564 92.7975 80.4963 88.7284 83.537C87.7309 84.2825 86.6942 85.0477 85.7973 85.9138C90.8814 85.7369 95.9573 85.82 101.04 85.6833L111.16 85.5872C113.05 85.5816 115.072 85.7281 116.948 85.5234L116.88 85.4827C115.839 84.8725 114.714 84.4103 113.666 83.7977C110.416 81.8966 107.172 79.6678 104.225 77.3227C103.805 76.9883 102.036 75.3894 101.639 75.4234Z" fill="#25904A"/>
<path d="M47.131 88.1483C44.9624 88.1541 42.7938 88.1474 40.6252 88.128C39.4533 88.1211 38.2078 88.1985 37.0441 88.0786C36.7083 88.0441 36.1672 87.9941 35.9163 87.7369C35.728 87.544 35.6561 87.2988 35.6178 87.0394C35.4769 86.0818 35.5014 85.064 35.4477 84.0951L35.0969 77.9174L34.6258 69.1483C34.5136 67.1194 34.366 65.0794 34.3314 63.0477C34.3191 62.3232 34.3539 61.7002 34.9046 61.1604C35.2567 60.8149 35.7247 60.7499 36.1974 60.7002C38.3455 60.4741 40.9285 60.6046 43.1257 60.563L58.8763 60.3182C62.4169 60.2941 66.0157 60.1899 69.5466 60.4513C69.7117 60.5646 69.8877 60.6782 70.0296 60.8202C70.238 61.0288 70.3493 61.2824 70.3967 61.5707C70.511 62.2647 70.5025 63.0311 70.5414 63.7368C70.6397 65.521 70.6832 67.3079 70.7652 69.093C71.0286 74.3076 71.2577 79.5238 71.4525 84.7415C71.4752 85.5365 71.7221 87.1655 71.1297 87.7554C70.8411 88.0429 70.4496 88.0346 70.0617 88.0576C69.0552 88.1172 68.0267 88.0744 67.0185 88.0719L61.4586 88.0597L47.131 88.1483ZM57.4653 62.8969C52.0803 62.9291 46.6957 63.0183 41.3125 63.1646C44.1811 65.706 47.1232 68.1741 49.9285 70.7851C50.6155 71.3947 51.3214 71.9977 51.9774 72.6405C56.04 69.3385 60.0447 65.9033 64.3193 62.8744C62.0353 62.8975 59.7486 62.8483 57.4653 62.8969ZM36.8464 63.2732C37.0089 68.2183 37.3464 73.1766 37.6438 78.1158C37.781 80.3957 37.9719 82.6843 38.0219 84.9674C39.6682 83.0663 42.2939 80.903 44.2188 79.2022C46.1533 77.5341 48.1008 75.8446 50.1083 74.2655C46.8908 71.4819 43.7591 68.6036 40.5602 65.7997C39.6867 65.0343 38.76 63.9361 37.8005 63.338C37.5424 63.1772 37.1386 63.2524 36.8464 63.2732ZM67.8691 63.2251C65.9505 64.9063 63.8133 66.35 61.7857 67.898C59.116 69.9729 56.4953 72.1104 53.9263 74.3086C56.1708 76.2793 58.2961 78.3861 60.6571 80.2197C62.4966 81.6485 66.7299 85.2647 68.9405 85.6279L68.3478 70.0636C68.2466 67.9351 68.2624 65.5833 67.9925 63.4841C67.9785 63.3744 67.9385 63.3083 67.8691 63.2251ZM51.9055 75.8957C50.6242 77.0833 49.2496 78.171 47.9207 79.3049C45.5025 81.368 43.0794 83.481 40.7714 85.6665L52.6208 85.6279C56.3269 85.5821 60.0333 85.5699 63.7396 85.5913C61.2663 83.8332 58.9116 82.0347 56.6214 80.0404C55.0566 78.6777 53.5622 77.14 51.9055 75.8957Z" fill="#141413"/>
<path d="M87.3472 62.6416C90.22 62.34 93.1336 62.206 96.0203 62.1203C97.509 62.0238 99.0244 62.0613 100.517 62.0688C104.086 62.088 107.654 62.2158 111.216 62.4521C113.289 62.5747 115.352 62.79 117.43 62.7697C113.985 65.5469 109.972 67.548 106.157 69.7527C104.696 70.6222 103.188 71.398 101.771 72.3418C98.3808 69.6224 94.6169 67.2143 90.9356 64.9111C89.7358 64.1603 88.5708 63.3538 87.3472 62.6416Z" fill="white"/>
<path d="M41.3125 63.1645C46.6956 63.0183 52.0803 62.9291 57.4653 62.8969C59.7486 62.8483 62.0353 62.8975 64.3192 62.8744C60.0447 65.9033 56.04 69.3385 51.9773 72.6405C51.3214 71.9977 50.6155 71.3947 49.9284 70.785C47.1231 68.1741 44.1811 65.706 41.3125 63.1645Z" fill="white"/>
<path d="M83.6717 84.5238C83.5133 80.9746 83.5947 77.4089 83.4385 73.8541C83.3136 71.5021 83.1661 69.1511 82.9961 66.8019C82.8946 65.5582 82.7435 64.3169 82.6707 63.0713C82.6825 63.0716 82.6942 63.0722 82.7061 63.0724C82.9042 63.0744 83.1347 63.0619 83.3233 63.1286C83.9939 63.3663 85.1942 64.2469 85.8671 64.6488C90.6024 67.4772 95.0922 70.5564 99.5916 73.7393C98.7342 74.3543 97.7763 74.8582 96.861 75.38C95.5491 76.1168 94.2506 76.8766 92.966 77.6596C89.6236 79.6254 86.5675 81.9544 83.6717 84.5238Z" fill="white"/>
<path d="M103.747 73.9123C105.128 73.1932 106.456 72.3784 107.82 71.6274C110.466 70.1702 113.146 68.7385 115.677 67.0849C116.653 66.4471 117.61 65.753 118.53 65.0371C119.397 64.3626 120.269 63.5369 121.274 63.079L121.337 63.1191C121.524 63.4498 121.538 66.5138 121.573 67.1712C121.792 71.2544 122.162 75.3269 122.362 79.4115C122.455 81.3026 122.542 83.1995 122.52 85.0932C121.405 84.6009 120.228 84.2432 119.107 83.7576C116.011 82.4168 113.777 81.0959 111.001 79.2127C108.559 77.4787 106.141 75.7116 103.747 73.9123Z" fill="white"/>
<path d="M38.0219 84.9674C37.9719 82.6842 37.781 80.3956 37.6438 78.1158C37.3464 73.1766 37.0089 68.2183 36.8464 63.2731C37.1386 63.2524 37.5424 63.1772 37.8005 63.338C38.76 63.9361 39.6867 65.0342 40.5602 65.7997C43.7591 68.6036 46.8908 71.4819 50.1083 74.2655C48.1008 75.8446 46.1533 77.5341 44.2188 79.2022C42.2939 80.903 39.6682 83.0663 38.0219 84.9674Z" fill="white"/>
<path d="M53.9263 74.3086C56.4953 72.1103 59.116 69.9728 61.7856 67.898C63.8133 66.35 65.9505 64.9063 67.8691 63.225C67.9385 63.3083 67.9785 63.3744 67.9925 63.4841C68.2624 65.5833 68.2466 67.935 68.3478 70.0636L68.9405 85.6279C66.7299 85.2647 62.4966 81.6485 60.6571 80.2197C58.2961 78.3861 56.1708 76.2793 53.9263 74.3086Z" fill="white"/>
<path d="M85.7974 85.9138C86.6942 85.0477 87.731 84.2826 88.7285 83.5371C92.7975 80.4963 97.3 78.0565 101.639 75.4235C102.036 75.3894 103.805 76.9884 104.225 77.3227C107.172 79.6679 110.416 81.8966 113.666 83.7977C114.714 84.4104 115.839 84.8726 116.88 85.4827L116.948 85.5235C115.072 85.7282 113.05 85.5816 111.16 85.5873L101.04 85.6834C95.9574 85.8201 90.8814 85.7369 85.7974 85.9138Z" fill="white"/>
<path d="M40.7715 85.6664C43.0795 83.4809 45.5026 81.368 47.9207 79.3048C49.2496 78.1709 50.6243 77.0833 51.9055 75.8956C53.5623 77.14 55.0566 78.6777 56.6215 80.0403C58.9116 82.0347 61.2663 83.8331 63.7396 85.5913C60.0334 85.5699 56.327 85.582 52.6209 85.6278L40.7715 85.6664Z" fill="white"/>
<path d="M100.83 120.048C97.1515 119.985 93.4729 119.944 89.7942 119.924C87.7301 119.924 85.5844 120.063 83.5311 119.919C83.1662 119.894 82.5937 119.879 82.3192 119.616C81.9265 119.24 81.8028 118.544 81.7748 118.025C81.7045 116.718 81.7155 115.399 81.6756 114.089L81.3697 105.145L81.1687 99.8029C81.1311 98.7277 81.0312 97.5913 81.1354 96.5204C81.179 96.0719 81.3109 95.7471 81.6267 95.4196C81.9453 95.0894 82.2819 94.9716 82.7237 94.8901C85.6298 94.3532 88.9276 94.5254 91.8934 94.489L105.867 94.3029C109.694 94.261 113.522 94.2433 117.349 94.2497C119.17 94.2513 121.097 94.1293 122.907 94.2943C123.298 94.3299 123.77 94.3694 124.073 94.6415C124.276 94.8235 124.519 95.121 124.596 95.3877C124.83 96.2069 124.748 97.3351 124.772 98.1888L124.892 103.398C124.959 107.12 125.001 110.842 125.018 114.565C125.022 115.956 125.18 117.823 124.953 119.177C124.903 119.473 124.734 119.716 124.524 119.923C124.199 120.243 123.938 120.395 123.481 120.449C122.511 120.563 121.492 120.469 120.516 120.437C119.102 120.39 117.687 120.351 116.272 120.319L100.83 120.048ZM116.397 96.8015C107.503 96.9344 98.6086 96.8612 89.7147 97.1008C91.4484 98.4274 93.3983 99.5176 95.2437 100.683L102.65 105.469C104.986 103.814 107.431 102.246 109.888 100.773C110.637 100.324 116.675 97.0085 116.782 96.8383C116.624 96.7847 116.56 96.7893 116.397 96.8015ZM122.008 96.901C118.026 98.9377 114.123 101.126 110.308 103.46C108.479 104.566 106.598 105.662 104.87 106.92L112.103 111.568C114.49 113.127 116.898 114.653 119.328 116.144C120.35 116.765 121.379 117.436 122.448 117.972C122.51 115.844 122.535 97.9415 122.155 96.9501L122.008 96.901ZM83.9225 97.2726L83.6875 97.3501C83.3661 98.0963 84.2059 114.348 84.274 116.634C86.0342 115.695 87.817 114.776 89.5473 113.784C91.1748 112.851 92.7609 111.829 94.3715 110.865C96.4155 109.605 98.4358 108.308 100.431 106.973C99.3208 106.199 98.1511 105.509 97.0142 104.774C94.777 103.308 92.5322 101.853 90.28 100.41L87.3867 98.5269C86.8011 98.1394 86.1558 97.6079 85.5075 97.3413C85.0461 97.1518 84.4161 97.2433 83.9225 97.2726ZM102.697 108.412C100.293 109.984 97.9173 111.617 95.4615 113.105C93.0154 114.586 90.4861 115.916 88.0259 117.365C91.1544 117.281 94.294 117.363 97.4223 117.419C99.3244 117.453 101.234 117.423 103.134 117.512C107.88 117.62 112.657 117.543 117.395 117.841L107.596 111.596C105.956 110.544 104.263 109.577 102.697 108.412Z" fill="#141413"/>
<path d="M61.731 120.248C61.7111 120.251 61.6913 120.254 61.6713 120.256C57.0353 120.651 52.4056 120.021 47.7903 119.725C45.5313 119.58 43.1592 119.672 40.9371 119.228C40.0836 119.058 39.233 118.755 38.5464 118.206C37.1955 117.125 36.9094 115.056 36.7521 113.446C36.4822 110.686 36.4831 107.892 36.4188 105.121C36.3692 102.99 36.1749 100.644 36.4819 98.53C36.5553 98.0249 36.6925 97.4833 37.0381 97.091C38.4925 95.4399 43.1467 95.1305 45.315 95.0008C49.7794 94.7641 54.298 95.0091 58.765 95.1349C61.1831 95.203 63.9113 95.1147 66.2725 95.4224C66.9866 95.5154 67.8172 95.6929 68.4066 96.123C69.5902 96.9866 69.9139 98.3152 70.0997 99.6811C70.5064 102.67 70.623 105.784 70.6969 108.799C70.7445 110.743 70.8466 112.772 70.5585 114.7C70.4206 115.622 70.1467 116.754 69.5514 117.496C67.8205 119.654 64.3089 120.02 61.731 120.248Z" fill="#25904A"/>
<path d="M89.7146 97.1008C98.6085 96.8611 107.503 96.9344 116.397 96.8014C116.559 96.7892 116.624 96.7847 116.782 96.8383C116.674 97.0084 110.637 100.324 109.888 100.773C107.431 102.246 104.986 103.814 102.649 105.469L95.2437 100.683C93.3982 99.5175 91.4483 98.4274 89.7146 97.1008Z" fill="white"/>
<path d="M104.87 106.92C106.598 105.662 108.479 104.566 110.307 103.46C114.123 101.126 118.026 98.9377 122.008 96.901L122.155 96.9501C122.535 97.9415 122.51 115.844 122.448 117.972C121.379 117.436 120.35 116.765 119.327 116.144C116.898 114.653 114.49 113.127 112.103 111.568L104.87 106.92Z" fill="white"/>
<path d="M84.2741 116.634C84.206 114.348 83.3661 98.0963 83.6875 97.35L83.9225 97.2725C84.4161 97.2433 85.0461 97.1518 85.5075 97.3413C86.1558 97.6079 86.8011 98.1394 87.3867 98.5269L90.28 100.41C92.5322 101.853 94.777 103.308 97.0142 104.774C98.1511 105.509 99.3208 106.199 100.431 106.973C98.4358 108.308 96.4155 109.605 94.3716 110.865C92.761 111.829 91.1749 112.851 89.5474 113.784C87.817 114.776 86.0342 115.695 84.2741 116.634Z" fill="white"/>
<path d="M88.0259 117.365C90.486 115.916 93.0154 114.586 95.4615 113.105C97.9173 111.617 100.293 109.984 102.697 108.412C104.263 109.577 105.956 110.544 107.596 111.596L117.395 117.841C112.657 117.543 107.88 117.62 103.134 117.512C101.234 117.423 99.3243 117.453 97.4223 117.419C94.294 117.363 91.1543 117.281 88.0259 117.365Z" fill="white"/>
</svg>
