<svg width="24" height="24" viewBox="0 0 24 24" fill="none" xmlns="http://www.w3.org/2000/svg">
<mask id="path-1-inside-1_397_1318" fill="white">
<path d="M20.4555 11.8495C20.4555 10.645 19.636 9.6317 18.5356 9.3422L21 2H8.78652L11.2568 9.3654C10.1907 9.6781 9.40554 10.674 9.40554 11.8552C9.40554 12.7238 9.83531 13.4939 10.4887 13.9687C10.2308 14.3393 9.93281 14.681 9.59459 15.0052C8.95845 15.6074 8.25351 16.0706 7.49126 16.3775C6.80345 15.9085 6.50542 15.0805 6.77484 14.3393C7.82364 14.0151 8.58588 13.0249 8.58588 11.861C8.58588 10.4308 7.43395 9.2727 6.02397 9.2727C4.60836 9.2727 3.45642 10.4366 3.45642 11.8668C3.45642 12.5732 3.74297 13.2218 4.20145 13.685C4.16136 13.7661 4.12128 13.8471 4.08109 13.934C3.69705 14.7331 3.26153 15.6364 3.09524 16.6497C2.76287 18.6763 3.30736 20.3034 4.61984 21.2241C5.35922 21.7394 6.17304 22 7.04991 22C8.55728 22 10.0875 21.2357 11.5662 20.4945C12.6208 19.9676 13.7097 19.4175 14.7815 19.1511C15.177 19.0527 15.5896 18.9948 16.0252 18.9311C16.9079 18.8037 17.8192 18.6705 18.6387 18.1899C19.5959 17.6283 20.2492 16.6902 20.4384 15.6132C20.5816 14.7852 20.4384 13.9514 20.0716 13.2218C20.318 12.8222 20.4555 12.3532 20.4555 11.8495ZM19.3379 11.8495C19.3379 12.6543 18.6903 13.3086 17.8936 13.3086C17.0969 13.3086 16.4494 12.6543 16.4494 11.8495C16.4494 11.5889 16.5181 11.3399 16.6384 11.1257C16.6853 11.044 16.739 10.9665 16.799 10.894C16.8563 10.8246 16.9251 10.7609 16.9995 10.703L17.0053 10.6972C17.0511 10.6624 17.1027 10.6277 17.1543 10.5929C17.1543 10.5929 17.1601 10.5929 17.1601 10.5871C17.1829 10.5756 17.2059 10.5582 17.2288 10.5466C17.2345 10.5466 17.2402 10.5408 17.246 10.5408C17.2689 10.5292 17.2975 10.5177 17.3262 10.5061C17.3549 10.4945 17.3836 10.4829 17.4064 10.4713C17.4122 10.4713 17.4179 10.4655 17.4236 10.4655C17.4466 10.4598 17.4695 10.4482 17.4924 10.4424C17.4982 10.4424 17.5097 10.4366 17.5154 10.4366C17.544 10.4308 17.567 10.425 17.5956 10.4192H17.6013L17.6873 10.4019C17.6931 10.4019 17.7044 10.4019 17.7102 10.3961C17.7332 10.3961 17.7561 10.3903 17.779 10.3903H17.8077C17.8363 10.3903 17.865 10.3845 17.8993 10.3845H17.9739C17.9968 10.3845 18.014 10.3845 18.0369 10.3903H18.0484C18.0942 10.3961 18.1401 10.4019 18.1859 10.4134C18.8393 10.5524 19.3379 11.143 19.3379 11.8495ZM10.3855 3.1581H19.401L17.332 9.3248C17.246 9.3422 17.1601 9.3712 17.074 9.4001L14.8962 4.9126L12.7125 9.3712C12.6266 9.3422 12.5348 9.3248 12.4431 9.3075L10.3855 3.1581ZM14.4834 11.3457C14.3746 10.8014 14.0995 10.315 13.7097 9.956L14.8962 7.5356L16.0939 10.0081C15.7386 10.3671 15.4808 10.8246 15.3775 11.3457H14.4834ZM11.6121 10.4308C11.6407 10.425 11.6637 10.4192 11.6923 10.4134H11.7095C11.7325 10.4076 11.7553 10.4076 11.7783 10.4019H11.8012C11.8241 10.4019 11.8413 10.3961 11.8642 10.3961H12.0878C12.1107 10.3961 12.1279 10.4019 12.1451 10.4019C12.1566 10.4019 12.1622 10.4019 12.1737 10.4076C12.1967 10.4134 12.2139 10.4134 12.2368 10.4192C12.2425 10.4192 12.2483 10.4192 12.2597 10.425C12.2883 10.4308 12.317 10.4366 12.3399 10.4424H12.3457C12.3686 10.4482 12.3916 10.454 12.4144 10.4655C12.4202 10.4655 12.4259 10.4713 12.4374 10.4713C12.4546 10.4771 12.4775 10.4829 12.4947 10.4945C12.5005 10.4945 12.5062 10.5003 12.5119 10.5003C12.5348 10.5119 12.5578 10.5177 12.5806 10.5292H12.5864C12.6151 10.5408 12.6379 10.5524 12.6609 10.5698H12.6666C12.6896 10.5814 12.7125 10.5987 12.7354 10.6103C12.7412 10.6103 12.7412 10.6161 12.7469 10.6161C12.7698 10.6277 12.787 10.645 12.81 10.6566L12.8156 10.6624C12.8844 10.7145 12.9475 10.7724 13.0105 10.8303L13.0162 10.8361C13.0736 10.8998 13.1309 10.9693 13.1767 11.0446C13.3305 11.2821 13.4122 11.5599 13.4117 11.8437C13.4117 12.6485 12.764 13.3028 11.9674 13.3028C11.1708 13.3028 10.5231 12.6485 10.5231 11.8437C10.5174 11.1662 10.9816 10.5929 11.6121 10.4308ZM5.97241 10.3903C6.7691 10.3903 7.41673 11.0446 7.41673 11.8495C7.41673 12.6544 6.7691 13.3086 5.97241 13.3086C5.17571 13.3086 4.52808 12.6543 4.52808 11.8495C4.52808 11.0446 5.17581 10.3903 5.97241 10.3903ZM19.3036 15.4105C19.1775 16.1517 18.7246 16.8002 18.0598 17.1882C17.4351 17.553 16.6671 17.6688 15.859 17.7846C15.4177 17.8483 14.9535 17.9178 14.5064 18.0278C13.3143 18.3231 12.168 18.9021 11.0561 19.458C9.63478 20.1702 8.29359 20.8419 7.04991 20.8419C6.40228 20.8419 5.82344 20.6566 5.27321 20.2687C4.0123 19.3885 4.07535 17.7383 4.22441 16.835C4.362 15.9896 4.74594 15.1963 5.11276 14.4378C5.13563 14.3914 5.15285 14.3509 5.17581 14.3046C5.30418 14.3515 5.43655 14.3864 5.57124 14.4088C5.35348 15.6364 5.97241 16.9045 7.17601 17.5298L7.39376 17.6456L7.62874 17.5588C8.63181 17.1998 9.56025 16.6149 10.3798 15.8332C10.8441 15.3932 11.2395 14.9184 11.5719 14.403C11.7038 14.4262 11.8356 14.432 11.9674 14.432C13.1596 14.432 14.1625 13.6039 14.4491 12.4922H15.412C15.6985 13.6097 16.7015 14.432 17.8936 14.432C18.3693 14.432 18.8107 14.2988 19.189 14.073C19.3379 14.5072 19.3837 14.9589 19.3036 15.4105Z"/>
</mask>
<path d="M20.4555 11.8495C20.4555 10.645 19.636 9.6317 18.5356 9.3422L21 2H8.78652L11.2568 9.3654C10.1907 9.6781 9.40554 10.674 9.40554 11.8552C9.40554 12.7238 9.83531 13.4939 10.4887 13.9687C10.2308 14.3393 9.93281 14.681 9.59459 15.0052C8.95845 15.6074 8.25351 16.0706 7.49126 16.3775C6.80345 15.9085 6.50542 15.0805 6.77484 14.3393C7.82364 14.0151 8.58588 13.0249 8.58588 11.861C8.58588 10.4308 7.43395 9.2727 6.02397 9.2727C4.60836 9.2727 3.45642 10.4366 3.45642 11.8668C3.45642 12.5732 3.74297 13.2218 4.20145 13.685C4.16136 13.7661 4.12128 13.8471 4.08109 13.934C3.69705 14.7331 3.26153 15.6364 3.09524 16.6497C2.76287 18.6763 3.30736 20.3034 4.61984 21.2241C5.35922 21.7394 6.17304 22 7.04991 22C8.55728 22 10.0875 21.2357 11.5662 20.4945C12.6208 19.9676 13.7097 19.4175 14.7815 19.1511C15.177 19.0527 15.5896 18.9948 16.0252 18.9311C16.9079 18.8037 17.8192 18.6705 18.6387 18.1899C19.5959 17.6283 20.2492 16.6902 20.4384 15.6132C20.5816 14.7852 20.4384 13.9514 20.0716 13.2218C20.318 12.8222 20.4555 12.3532 20.4555 11.8495ZM19.3379 11.8495C19.3379 12.6543 18.6903 13.3086 17.8936 13.3086C17.0969 13.3086 16.4494 12.6543 16.4494 11.8495C16.4494 11.5889 16.5181 11.3399 16.6384 11.1257C16.6853 11.044 16.739 10.9665 16.799 10.894C16.8563 10.8246 16.9251 10.7609 16.9995 10.703L17.0053 10.6972C17.0511 10.6624 17.1027 10.6277 17.1543 10.5929C17.1543 10.5929 17.1601 10.5929 17.1601 10.5871C17.1829 10.5756 17.2059 10.5582 17.2288 10.5466C17.2345 10.5466 17.2402 10.5408 17.246 10.5408C17.2689 10.5292 17.2975 10.5177 17.3262 10.5061C17.3549 10.4945 17.3836 10.4829 17.4064 10.4713C17.4122 10.4713 17.4179 10.4655 17.4236 10.4655C17.4466 10.4598 17.4695 10.4482 17.4924 10.4424C17.4982 10.4424 17.5097 10.4366 17.5154 10.4366C17.544 10.4308 17.567 10.425 17.5956 10.4192H17.6013L17.6873 10.4019C17.6931 10.4019 17.7044 10.4019 17.7102 10.3961C17.7332 10.3961 17.7561 10.3903 17.779 10.3903H17.8077C17.8363 10.3903 17.865 10.3845 17.8993 10.3845H17.9739C17.9968 10.3845 18.014 10.3845 18.0369 10.3903H18.0484C18.0942 10.3961 18.1401 10.4019 18.1859 10.4134C18.8393 10.5524 19.3379 11.143 19.3379 11.8495ZM10.3855 3.1581H19.401L17.332 9.3248C17.246 9.3422 17.1601 9.3712 17.074 9.4001L14.8962 4.9126L12.7125 9.3712C12.6266 9.3422 12.5348 9.3248 12.4431 9.3075L10.3855 3.1581ZM14.4834 11.3457C14.3746 10.8014 14.0995 10.315 13.7097 9.956L14.8962 7.5356L16.0939 10.0081C15.7386 10.3671 15.4808 10.8246 15.3775 11.3457H14.4834ZM11.6121 10.4308C11.6407 10.425 11.6637 10.4192 11.6923 10.4134H11.7095C11.7325 10.4076 11.7553 10.4076 11.7783 10.4019H11.8012C11.8241 10.4019 11.8413 10.3961 11.8642 10.3961H12.0878C12.1107 10.3961 12.1279 10.4019 12.1451 10.4019C12.1566 10.4019 12.1622 10.4019 12.1737 10.4076C12.1967 10.4134 12.2139 10.4134 12.2368 10.4192C12.2425 10.4192 12.2483 10.4192 12.2597 10.425C12.2883 10.4308 12.317 10.4366 12.3399 10.4424H12.3457C12.3686 10.4482 12.3916 10.454 12.4144 10.4655C12.4202 10.4655 12.4259 10.4713 12.4374 10.4713C12.4546 10.4771 12.4775 10.4829 12.4947 10.4945C12.5005 10.4945 12.5062 10.5003 12.5119 10.5003C12.5348 10.5119 12.5578 10.5177 12.5806 10.5292H12.5864C12.6151 10.5408 12.6379 10.5524 12.6609 10.5698H12.6666C12.6896 10.5814 12.7125 10.5987 12.7354 10.6103C12.7412 10.6103 12.7412 10.6161 12.7469 10.6161C12.7698 10.6277 12.787 10.645 12.81 10.6566L12.8156 10.6624C12.8844 10.7145 12.9475 10.7724 13.0105 10.8303L13.0162 10.8361C13.0736 10.8998 13.1309 10.9693 13.1767 11.0446C13.3305 11.2821 13.4122 11.5599 13.4117 11.8437C13.4117 12.6485 12.764 13.3028 11.9674 13.3028C11.1708 13.3028 10.5231 12.6485 10.5231 11.8437C10.5174 11.1662 10.9816 10.5929 11.6121 10.4308ZM5.97241 10.3903C6.7691 10.3903 7.41673 11.0446 7.41673 11.8495C7.41673 12.6544 6.7691 13.3086 5.97241 13.3086C5.17571 13.3086 4.52808 12.6543 4.52808 11.8495C4.52808 11.0446 5.17581 10.3903 5.97241 10.3903ZM19.3036 15.4105C19.1775 16.1517 18.7246 16.8002 18.0598 17.1882C17.4351 17.553 16.6671 17.6688 15.859 17.7846C15.4177 17.8483 14.9535 17.9178 14.5064 18.0278C13.3143 18.3231 12.168 18.9021 11.0561 19.458C9.63478 20.1702 8.29359 20.8419 7.04991 20.8419C6.40228 20.8419 5.82344 20.6566 5.27321 20.2687C4.0123 19.3885 4.07535 17.7383 4.22441 16.835C4.362 15.9896 4.74594 15.1963 5.11276 14.4378C5.13563 14.3914 5.15285 14.3509 5.17581 14.3046C5.30418 14.3515 5.43655 14.3864 5.57124 14.4088C5.35348 15.6364 5.97241 16.9045 7.17601 17.5298L7.39376 17.6456L7.62874 17.5588C8.63181 17.1998 9.56025 16.6149 10.3798 15.8332C10.8441 15.3932 11.2395 14.9184 11.5719 14.403C11.7038 14.4262 11.8356 14.432 11.9674 14.432C13.1596 14.432 14.1625 13.6039 14.4491 12.4922H15.412C15.6985 13.6097 16.7015 14.432 17.8936 14.432C18.3693 14.432 18.8107 14.2988 19.189 14.073C19.3379 14.5072 19.3837 14.9589 19.3036 15.4105Z" fill="#25904A" stroke="#25904A" stroke-width="0.125" mask="url(#path-1-inside-1_397_1318)"/>
</svg>
