<svg width="24" height="24" viewBox="0 0 24 24" fill="none" xmlns="http://www.w3.org/2000/svg">
<path d="M14.2567 7.76076L14.2566 7.26083H13.7567H12.9792H12.4792V7.76083V13.3458H12.4791L12.4792 13.3538C12.4846 13.6878 12.4025 14.0175 12.2412 14.31C12.0882 14.5792 11.8614 14.7998 11.5871 14.9468L11.5871 14.9468L11.582 14.9496C11.299 15.1056 10.9537 15.1921 10.5297 15.1917H10.5292C10.1052 15.1917 9.76039 15.1052 9.47841 14.9502L9.47488 14.9483C9.20102 14.8005 8.974 14.5791 8.81949 14.309C8.65693 14.0178 8.57428 13.6887 8.57993 13.3551L8.58 13.3551V13.3467V7.76V7.26H8.08H7.3025H6.8025V7.76V13.3951C6.79253 14.0302 6.95726 14.6559 7.27875 15.2039L7.27874 15.2039L7.28084 15.2074C7.59982 15.741 8.05905 16.1771 8.60893 16.4683C9.17724 16.7762 9.82216 16.9225 10.5292 16.9225C11.2386 16.9225 11.8845 16.7774 12.4517 16.4709C13.0015 16.1797 13.4606 15.7429 13.7788 15.2082L13.7809 15.2047C14.1011 14.6565 14.2665 14.0307 14.2575 13.3954L14.2567 7.76076ZM17.2967 7.76167V7.26167H16.7967H16.0192H15.5192V7.76167V16.2783V16.7783H16.0192H16.7967H17.2967V16.2783V16.2775V7.76167ZM7.29417 2.5H16.7058C17.9773 2.5 19.1967 3.0051 20.0958 3.90418C20.9949 4.80326 21.5 6.02267 21.5 7.29417V16.7058C21.5 17.9773 20.9949 19.1967 20.0958 20.0958C19.1967 20.9949 17.9773 21.5 16.7058 21.5H7.29417C6.02267 21.5 4.80326 20.9949 3.90418 20.0958C3.0051 19.1967 2.5 17.9773 2.5 16.7058V7.29417C2.5 6.02267 3.0051 4.80326 3.90418 3.90418C4.80326 3.0051 6.02267 2.5 7.29417 2.5Z" fill="#25904A" stroke="#25904A"/>
</svg>
