<svg viewBox="0 0 160 160" fill="none" xmlns="http://www.w3.org/2000/svg">
<path d="M24.4406 40.0476C24.3547 39.2366 24.2914 38.3408 24.6934 37.5981C24.9331 37.1555 25.2836 36.9326 25.715 36.7042C26.7534 36.1541 27.8652 35.7153 28.9341 35.2239L35.6361 32.1126L54.4434 23.1783C59.0525 20.9973 63.6761 18.8673 68.2219 16.5537C70.3261 15.4829 72.4492 14.3731 74.4764 13.1624C76.1125 12.1852 78.4811 10.2749 80.1361 9.77863C80.5344 9.74375 80.9292 9.72058 81.3288 9.7501C81.9356 9.79494 82.508 10.0087 83.0194 10.3338C84.3886 11.2042 85.5763 12.5134 86.862 13.5235C89.0325 15.2283 91.4095 16.7728 93.7508 18.2278C97.8986 20.8056 102.335 23.0239 106.788 25.0284C111.858 27.3109 117.042 29.3533 122.147 31.5598C125.197 32.8781 128.321 34.182 131.172 35.8997C132.393 36.6355 133.574 37.4756 134.507 38.5637C135.223 39.3987 135.989 40.6487 136.205 41.7406C136.385 42.6512 136.291 43.66 136.281 44.5851L136.254 48.3131C136.224 53.6458 136.389 59.1517 135.96 64.4598C135.318 72.1933 134.176 79.877 132.542 87.463C131.428 92.6925 130.214 98.2102 128.435 103.244C127.467 105.981 126.261 108.683 124.984 111.288C120.38 120.68 114.202 128.912 106.671 136.157C105.38 137.399 104.09 138.645 102.723 139.804C97.6956 144.071 91.063 149.017 84.4136 150.154C82.952 150.404 81.5338 150.425 80.0595 150.304C74.7578 149.746 70.1686 147.051 65.6558 144.414C58.4633 140.211 52.0847 135.831 46.2036 129.857C41.3291 124.905 37.1778 119.097 34.3384 112.741C32.2574 108.082 30.818 103.114 29.6288 98.1633C26.6156 85.6192 25.3344 72.7247 24.455 59.8798C24.1338 55.568 23.9142 51.2491 23.7967 46.9267C23.7503 45.2723 23.6663 43.6011 23.6928 41.9473C23.7072 41.0576 23.7906 40.6803 24.4406 40.0476ZM80.7347 16.0801C78.8117 17.4853 76.6724 18.603 74.5883 19.7448C70.4495 22.0125 66.2558 24.0923 61.9911 26.1103L39.1975 36.9959C37.0617 38.0048 34.9175 39.0051 32.7627 39.9726C31.6922 40.4534 30.5575 40.8653 29.5147 41.3983C29.4753 46.6776 29.8634 52.0008 30.1764 57.2709C30.8684 68.9211 31.928 80.502 34.2041 91.9639C35.3714 97.8423 36.8234 103.816 39.2044 109.331C42.1238 116.093 45.692 121.142 50.8509 126.371C54.0313 129.595 57.7705 132.545 61.5566 135.037C63.5938 136.377 65.7092 137.593 67.792 138.86C71.445 141.081 75.0817 143.495 79.3094 144.443C83.3078 145.108 86.5733 143.806 89.9797 141.845C91.5616 140.932 93.0989 139.944 94.5867 138.885C97.3625 136.9 99.9 134.612 102.346 132.241C111.179 123.677 118.643 113.174 122.775 101.517C123.527 99.3959 124.077 97.2134 124.65 95.0387C126.17 89.1006 127.425 83.0978 128.412 77.0481C129.234 72.0512 129.861 66.9453 130.11 61.885C130.279 58.4447 130.249 54.978 130.285 51.5326C130.317 48.5965 130.497 45.5683 130.298 42.6409C129.975 42.1419 129.565 41.7014 129.07 41.368C128.016 40.6589 126.787 40.1109 125.647 39.5587C123.072 38.3111 120.456 37.1498 117.803 36.077C113.27 34.2003 108.716 32.3141 104.256 30.2698C100.217 28.4191 96.2045 26.388 92.3738 24.1361C89.455 22.3876 86.6222 20.4998 83.885 18.4789C83.317 18.0553 81.1711 16.194 80.7347 16.0801Z" fill="#141413"/>
<path d="M29.5147 41.3983C30.5575 40.8653 31.6922 40.4534 32.7626 39.9726C34.9175 39.0051 37.0617 38.0048 39.1975 36.9959L61.9911 26.1103C66.2558 24.0923 70.4495 22.0125 74.5883 19.7448C76.6723 18.603 78.8117 17.4853 80.7347 16.0801C81.1711 16.194 83.317 18.0553 83.885 18.4789C86.6222 20.4998 89.455 22.3876 92.3737 24.1361C96.2045 26.3879 100.217 28.419 104.256 30.2698C108.716 32.314 113.27 34.2003 117.803 36.077C120.456 37.1498 123.072 38.3111 125.647 39.5587C126.787 40.1109 128.016 40.6589 129.07 41.368C129.565 41.7014 129.975 42.1419 130.298 42.6409C130.497 45.5683 130.317 48.5965 130.285 51.5326C130.249 54.978 130.279 58.4447 130.11 61.885C129.861 66.9453 129.234 72.0512 128.412 77.0481C127.425 83.0978 126.17 89.1006 124.65 95.0387C124.077 97.2134 123.527 99.3959 122.775 101.517C118.643 113.174 111.179 123.677 102.346 132.241C99.9 134.612 97.3625 136.9 94.5867 138.885C93.0989 139.944 91.5616 140.932 89.9797 141.845C86.5733 143.806 83.3078 145.108 79.3094 144.443C75.0817 143.495 71.445 141.081 67.792 138.86C65.7092 137.593 63.5937 136.377 61.5565 135.037C57.7705 132.545 54.0312 129.595 50.8509 126.371C45.692 121.142 42.1237 116.093 39.2044 109.331C36.8234 103.816 35.3714 97.8423 34.204 91.9639C31.928 80.502 30.8684 68.9211 30.1764 57.2709C29.8634 52.0008 29.4753 46.6776 29.5147 41.3983ZM80.5834 26.0264C79.9059 26.175 76.6655 28.3264 75.7364 28.8337C73.4944 30.0336 71.2262 31.1839 68.9336 32.2837C65.069 34.0975 61.1017 35.6451 57.1667 37.2929L44.1965 42.7951C43.827 42.5747 43.6059 42.4619 43.1684 42.564C42.55 42.7086 41.9183 43.1805 41.5976 43.7297C41.0728 44.6283 40.9373 50.0753 40.8586 51.427C40.5112 57.4003 40.107 63.7608 40.2014 69.7267C40.297 78.1897 41.58 86.5972 44.0126 94.7036C48.6669 110.069 57.45 122.171 71.7231 129.809C74.1453 131.105 76.6001 132.308 79.0767 133.496C79.918 133.899 80.1781 134.489 80.929 134.6L81.0336 134.528C81.9126 133.926 82.3476 134.438 82.9159 134.085C83.3903 133.79 83.31 133.156 83.732 132.877C84.5612 132.329 85.4975 131.893 86.3505 131.371C88.4442 130.069 90.5128 128.727 92.5551 127.347C95.1912 125.537 97.7462 123.611 100.213 121.577C102.082 120.046 103.918 118.511 105.563 116.735C107.599 114.537 109.275 112.016 110.793 109.442C115.035 102.249 117.008 96.2647 118.589 88.1212C120.069 80.4992 121.25 71.8039 121.304 64.043C121.336 59.5289 120.963 55.0425 120.666 50.5433C120.587 49.3495 120.581 45.5012 120.021 44.7026C119.806 44.3972 119.534 44.2219 119.163 44.1725C118.78 44.1214 118.465 44.2165 118.107 44.3428C115.626 43.3805 113.201 42.2728 110.741 41.2573C104.52 38.69 98.3486 36.1064 92.3725 32.994C89.5072 31.5019 86.6528 29.8811 83.9578 28.1009C83.1773 27.5853 81.4081 26.1337 80.5834 26.0264Z" fill="white"/>
<path d="M44.1966 42.7952L57.1667 37.293C61.1017 35.6452 65.0691 34.0975 68.9336 32.2838C71.2263 31.1839 73.4944 30.0336 75.7364 28.8338C76.6655 28.3264 79.9059 26.175 80.5834 26.0264C81.4081 26.1338 83.1773 27.5853 83.9578 28.101C86.6528 29.8811 89.5072 31.5019 92.3725 32.9941C98.3486 36.1064 104.52 38.69 110.741 41.2574C113.201 42.2728 115.626 43.3805 118.108 44.3428C118.465 44.2166 118.78 44.1214 119.163 44.1725C119.534 44.2219 119.806 44.3972 120.021 44.7027C120.581 45.5013 120.587 49.3496 120.666 50.5433C120.963 55.0425 121.336 59.5289 121.304 64.043C121.25 71.8039 120.069 80.4992 118.589 88.1213C117.008 96.2647 115.035 102.249 110.793 109.442C109.275 112.016 107.599 114.537 105.563 116.735C103.918 118.511 102.082 120.046 100.213 121.577C97.7463 123.611 95.1913 125.537 92.5552 127.347C90.5128 128.727 88.4442 130.069 86.3505 131.371C85.4975 131.893 84.5613 132.329 83.732 132.877C83.31 133.156 83.3903 133.79 82.9159 134.085C82.3477 134.438 81.9127 133.926 81.0336 134.528L80.9291 134.6C80.1781 134.489 79.918 133.899 79.0767 133.496C76.6002 132.308 74.1453 131.105 71.7231 129.809C57.45 122.171 48.6669 110.069 44.0127 94.7036C41.58 86.5972 40.297 78.1897 40.2014 69.7267C40.107 63.7608 40.5113 57.4003 40.8586 51.4271C40.9373 50.0753 41.0728 44.6283 41.5977 43.7297C41.9183 43.1805 42.55 42.7086 43.1684 42.5641C43.6059 42.4619 43.827 42.5747 44.1966 42.7952ZM80.5759 29.0625C77.3205 31.1531 73.7995 32.9313 70.3125 34.6C65.085 37.1017 59.655 39.176 54.3014 41.39C52.3148 42.21 50.3327 43.0403 48.3547 43.8811C47.3036 44.326 46.2386 44.8527 45.1584 45.2164C44.6913 45.3739 44.3144 45.3958 43.8247 45.371C43.4184 50.4958 43.2142 55.6856 43.0467 60.8224C42.8723 66.1689 42.7094 71.5407 43.175 76.8778C43.6511 81.8853 44.5675 86.8411 45.9139 91.6877C48.4513 100.758 52.1897 108.853 58.3411 116.072C64.458 123.25 72.6558 127.53 81.0489 131.497C83.1938 130.111 85.418 128.852 87.5691 127.473C91.5017 124.956 95.2834 122.21 98.8947 119.25C100.617 117.827 102.323 116.421 103.809 114.745C105.959 112.322 107.731 109.562 109.307 106.74C112.853 100.391 114.25 95.82 115.759 88.7925C116.435 85.6439 116.893 82.4538 117.33 79.2652C118.086 73.7455 118.679 68.1946 118.625 62.6144C118.575 57.4413 118.039 52.2635 117.702 47.1039C114.308 45.9411 111.007 44.4256 107.706 43.0211C101.646 40.4427 95.6281 37.8069 89.8092 34.71C87.4498 33.4542 85.1264 32.0099 82.8663 30.5822C82.1939 30.1575 81.2802 29.3167 80.5759 29.0625Z" fill="#141413"/>
<path d="M43.8247 45.3709C44.3144 45.3958 44.6912 45.3739 45.1584 45.2164C46.2386 44.8527 47.3036 44.3259 48.3547 43.8811C50.3326 43.0403 52.3148 42.21 54.3014 41.39C59.655 39.1759 65.085 37.1017 70.3125 34.6C73.7995 32.9313 77.3204 31.1531 80.5759 29.0625C81.2801 29.3167 82.1939 30.1575 82.8662 30.5822C85.1264 32.0098 87.4498 33.4542 89.8092 34.71C95.6281 37.8069 101.646 40.4427 107.706 43.0211C111.007 44.4256 114.308 45.9411 117.702 47.1039C118.039 52.2634 118.575 57.4413 118.625 62.6144C118.679 68.1945 118.086 73.7455 117.33 79.2652C116.893 82.4538 116.435 85.6439 115.759 88.7925C114.25 95.82 112.853 100.391 109.307 106.74C107.731 109.562 105.959 112.322 103.809 114.745C102.322 116.421 100.617 117.827 98.8947 119.25C95.2834 122.21 91.5017 124.956 87.569 127.473C85.418 128.852 83.1937 130.111 81.0489 131.497C72.6558 127.53 64.4579 123.25 58.3411 116.072C52.1897 108.853 48.4512 100.758 45.9139 91.6877C44.5675 86.8411 43.6511 81.8853 43.175 76.8778C42.7094 71.5406 42.8723 66.1689 43.0467 60.8223C43.2142 55.6856 43.4184 50.4958 43.8247 45.3709ZM80.7911 44.1736C74.865 44.4494 64.2555 49.5103 60.2284 53.9422C59.0512 55.2378 55.6308 59.9658 55.7514 61.7167C55.7769 62.0886 55.9423 62.4045 56.2261 62.6455C56.5183 62.8936 56.9012 62.9936 57.264 63.0905C58.0058 62.9266 58.2926 62.8655 58.718 62.1908C59.1545 61.4984 59.5119 60.7498 59.9117 60.0355C60.6492 58.7178 61.5342 57.4336 62.5403 56.3083C65.6292 52.8527 74.0511 48.8395 78.5848 47.8011C81.7234 47.0822 85.0283 47.7909 87.9354 49.0597C88.9545 49.5092 89.9459 49.9842 90.8912 50.5783C94.9173 53.1088 100.03 58.0305 102.536 62.0731C103.164 63.0864 103.65 64.1561 104.079 65.2653C104.474 66.2869 104.972 68.6541 105.955 69.0814C106.386 69.2691 106.885 69.175 107.298 68.9825C107.651 68.818 108.042 68.4667 108.16 68.0841C108.599 66.6678 106.585 62.4809 105.838 61.217C101.983 54.6917 93.9976 46.8323 86.5015 44.9181C84.6598 44.4478 82.6934 44.1389 80.7911 44.1736ZM80.0436 49.4077C74.0995 49.812 68.1425 53.1038 64.2473 57.5645C60.988 61.297 57.1647 65.6158 55.567 70.3902C54.7384 72.8664 54.4222 75.5439 54.242 78.1372C54.1151 79.9627 53.9028 81.9264 54.0415 83.7517C54.0806 84.2667 54.1719 84.7203 54.5736 85.0789C54.92 85.3839 55.3814 85.5244 55.839 85.4639C56.2823 85.4097 56.7165 85.1541 56.9836 84.7964C57.1581 84.5627 57.2559 84.2774 57.2992 83.9908C57.4059 83.2844 57.3573 82.5036 57.3809 81.7872C57.4428 79.9063 57.4564 78.0042 57.682 76.1345C57.8917 74.3956 58.2425 72.6422 58.8645 71.0022C60.4761 66.7531 64.4115 62.173 67.5765 58.9392C71.2273 55.3136 75.8958 52.7513 81.1525 52.7723C85.395 52.7894 89.609 54.9836 92.55 57.9719C94.7395 60.1967 96.4175 62.7542 98.118 65.3559C98.8914 66.5392 99.6458 67.9283 100.614 68.9578C100.855 69.2145 101.112 69.3422 101.467 69.3567C101.981 69.3778 102.523 69.1513 102.879 68.783C103.137 68.5163 103.303 68.1527 103.295 67.778C103.269 66.4863 98.6354 59.9352 97.6084 58.6378C96.479 57.2113 95.2706 55.7566 93.909 54.5459C90.2526 51.2948 85.1442 49.1448 80.2134 49.3947C80.1567 49.3975 80.1001 49.403 80.0436 49.4077ZM78.8706 55.3442C74.3215 55.7902 70.7953 58.1834 67.4708 61.1664C66.2039 62.3031 64.9636 63.4908 63.8834 64.8092C59.8667 69.7122 59.0942 75.9458 58.3345 82.0194C58.1047 83.8572 57.9333 85.7792 57.5019 87.5798C57.3811 88.0838 57.25 88.628 57.019 89.0948C56.5526 90.0375 55.5084 91.0053 55.6108 92.1269C55.6453 92.5045 55.8367 92.8197 56.1273 93.0578C56.49 93.355 56.9503 93.5641 57.427 93.515C58.0328 93.4525 58.5428 92.9109 58.8887 92.4511C61.6225 88.818 61.6278 80.7728 62.4842 76.2261C63.0145 73.4106 63.9572 70.4342 65.5653 68.0531C66.7608 66.2831 68.3819 64.8359 69.9465 63.3992C72.3155 61.2241 74.972 59.3156 78.2197 58.8131C78.784 58.7258 79.3658 58.6659 79.9372 58.658C84.2131 58.6642 88.9594 60.6386 91.9884 63.6656C94.8739 66.5489 95.934 70.5748 97.7551 74.108C99.4608 77.417 101.473 80.5553 103.527 83.6545C104.302 84.8231 105.138 86.3063 106.181 87.2456C106.451 87.4886 106.725 87.6109 107.09 87.6195C107.329 87.6252 107.566 87.5897 107.802 87.5545C108.255 87.2519 108.709 86.8919 108.821 86.3255C108.931 85.7742 108.665 85.2334 108.345 84.8022C105.521 81.043 103.026 77.0467 100.89 72.8581C99.5845 70.3153 98.6656 67.5794 97.2773 65.0831C94.3495 59.8189 88.57 56.3297 82.653 55.5031C81.4769 55.3388 80.0587 55.1653 78.8706 55.3442ZM80.5201 61.8292C75.9089 62.2091 71.1361 64.9398 68.16 68.4292C65.5258 71.518 63.5237 75.6984 63.3237 79.7725C63.1734 82.8324 63.3355 85.2486 62.5198 88.2781C62.2073 89.4391 61.7744 90.6569 61.1859 91.708C60.6373 92.6874 59.9512 93.272 59.715 94.4208C59.9109 94.9533 60.1131 95.457 60.6692 95.707C61.065 95.885 61.5826 95.8375 61.9751 95.6706C63.2583 95.1252 64.7639 91.9181 65.2176 90.6545C66.1655 88.0149 66.4472 85.2781 66.5395 82.4939C66.5775 81.3513 66.5559 80.1953 66.6953 79.0592C66.8815 77.5409 67.3794 76.1108 68.028 74.7308C69.7508 71.065 72.4312 68.2331 76.1031 66.4936C78.5839 65.3183 81.0304 64.9392 83.7289 65.5047C88.0408 66.7374 90.9553 69.7525 93.0842 73.6109C94.2615 75.7447 94.8034 78.0077 95.6494 80.2661C97.1372 84.2383 99.4965 88.0027 102.179 91.2739C102.787 92.0155 103.651 93.3542 104.594 93.6467C104.999 93.7723 105.413 93.7352 105.785 93.53C106.185 93.3091 106.568 92.9261 106.667 92.4664C106.808 91.8078 106.391 91.1802 106.032 90.665C105.541 89.9625 104.883 89.3873 104.357 88.7109C102.746 86.6261 101.326 84.3992 100.117 82.058C98.7186 79.3117 98.2067 76.6839 97.048 73.9323C94.7289 68.425 89.5897 62.9603 83.489 61.9506C82.5006 61.7872 81.5183 61.7647 80.5201 61.8292ZM80.6836 66.7491C77.4053 67.0947 74.5912 69.345 72.5775 71.8367C70.188 74.7931 68.8194 78.3011 68.2239 82.0305C67.589 86.0067 67.629 88.4759 65.5287 92.2574C64.4439 94.1661 62.8767 95.7564 60.9839 96.8689C60.0406 97.4131 59.0367 97.6089 58.3739 98.5294C58.3008 99.1945 58.2834 99.8389 58.7469 100.383C59.005 100.686 59.438 100.952 59.8425 100.972C61.122 101.035 64.7636 98.3128 65.6683 97.4427C66.7844 96.3691 67.6764 95.1117 68.4426 93.7706C69.5844 91.7722 70.3565 89.6349 70.8411 87.39C71.1987 85.7328 71.3642 84.0395 71.6494 82.3697C72.2394 78.9147 73.5739 75.5084 76.0108 72.9275C77.2072 71.6603 78.7831 70.5281 80.4748 70.0353C82.0645 69.7433 83.3476 70.1386 84.6519 71.048C86.9067 72.6205 89.8094 76.883 90.86 79.4625C91.3017 80.5469 91.5476 81.703 91.7458 82.8534C92.0854 84.8263 92.3909 86.7658 93.2139 88.6134C94.3386 91.1384 99.2106 96.6039 101.526 98.2475C102.069 98.6331 102.735 98.9724 103.421 98.8497C103.855 98.772 104.181 98.4939 104.416 98.1303C104.638 97.7886 104.755 97.3677 104.661 96.9633C104.453 96.068 102.972 95.1983 102.32 94.5697C101.846 94.1138 101.405 93.6133 100.96 93.1289C99.5537 91.5955 98.1728 89.9891 96.9906 88.2734C95.3323 85.8667 95.3325 82.9941 94.6492 80.2475C93.5444 75.8059 89.6231 70.0064 85.6398 67.7294C84.1622 66.8847 82.3811 66.4838 80.6836 66.7491ZM103.516 69.2267C102.764 69.5373 102.453 69.9331 102.14 70.6702C102.547 72.1617 105.417 78.4536 106.607 79.0828C106.921 79.2489 107.308 79.2248 107.652 79.2014C108.201 78.9514 108.724 78.5998 108.933 78.0041C109.097 77.5347 108.835 77.1145 108.621 76.7014C107.953 75.41 107.18 74.172 106.51 72.8767C105.982 71.8567 105.533 70.5998 104.882 69.6664C104.743 69.4666 104.548 69.3242 104.311 69.2609C104.068 69.1963 103.766 69.2116 103.516 69.2267ZM79.8123 73.3777C77.3611 73.8002 75.6203 75.2175 74.2022 77.218C73.7437 77.8644 73.2084 78.673 73.3667 79.5034C73.4595 79.9903 73.8045 80.412 74.2089 80.6839C74.508 80.8852 74.8414 80.9733 75.1973 80.8945C76.7786 80.545 77.3278 77.3525 79.9851 76.7116C80.9112 76.4881 81.7914 76.7052 82.6019 77.1725C85.1436 78.6381 86.1859 82.0909 86.879 84.7616C88.3064 90.2614 87.4308 95.9125 84.5644 100.793C82.524 104.267 79.1359 108.467 75.8237 110.739C74.7787 111.366 73.0908 111.508 72.7178 112.838C72.61 113.222 72.6619 113.613 72.877 113.95C73.1309 114.348 73.572 114.612 74.0314 114.695C75.2764 114.921 77.0948 113.879 78.0648 113.167C79.3476 112.225 80.4703 111.07 81.575 109.93C85.8323 105.54 89.7358 100.041 90.6289 93.8489C90.9208 91.8261 91.0137 89.6419 90.8433 87.6061C90.5528 84.1378 89.3145 79.7345 87.1959 76.9528C85.8642 75.2044 84.03 73.6542 81.7786 73.3772C81.1237 73.2966 80.4686 73.3408 79.8123 73.3777ZM81.5476 78.9159C79.8873 79.3489 78.6656 80.865 77.84 82.287C76.4303 84.715 76.0108 87.4545 76.1045 90.2294C76.1301 90.9872 76.3011 91.9289 76.1256 92.663C75.7514 94.2277 73.5184 97.4375 72.4809 98.8067C70.9214 100.865 69.0637 102.89 67.0519 104.513C66.1986 105.202 64.9847 105.744 64.2762 106.563C63.9411 106.95 63.6703 107.543 63.8265 108.06C63.9608 108.505 64.4247 108.896 64.8353 109.081C65.3303 109.304 65.9011 109.236 66.3859 109.023C67.1153 108.702 67.7884 108.137 68.4201 107.652C72.4414 104.565 75.8075 100.335 78.2173 95.8931C78.6586 95.0797 79.1512 94.2436 79.4712 93.3742C79.842 92.3673 79.5564 91.4052 79.4739 90.3795C79.2469 87.5594 79.8381 84.4611 81.763 82.2803C81.9787 83.3927 82.1084 84.5786 82.115 85.7122C82.1725 93.3313 80.7545 98.8513 75.2997 104.384C73.8669 105.838 72.3697 107.04 70.6742 108.175C69.9333 108.671 68.9801 109.086 68.3439 109.699C67.9636 110.065 67.6795 110.542 67.674 111.084C67.6703 111.464 67.8405 111.792 68.1086 112.053C68.4228 112.359 68.8253 112.616 69.2767 112.598C71.3986 112.512 77.6686 106.776 79.2011 105.011C81.4326 102.442 83.2783 99.1386 84.277 95.8938C85.3281 92.4786 85.702 87.8603 85.4453 84.2902C85.3284 82.6644 84.9665 80.6172 83.6617 79.4903C83.0894 78.9961 82.4626 78.8261 81.7209 78.8967C81.6631 78.9025 81.6053 78.9088 81.5476 78.9159ZM73.9497 82.6081C73.4219 82.6669 72.9808 82.727 72.6144 83.1538C72.0103 83.8572 72.1372 85.1864 72.0359 86.068C71.973 86.6161 71.8626 87.1634 71.7464 87.7025C70.782 92.1795 68.2347 97.2544 64.778 100.283C64.0933 100.883 63.3931 101.395 62.5539 101.756C61.9447 102.019 61.2425 102.215 60.7039 102.607C60.4217 103.182 60.2045 103.71 60.4169 104.357C60.5647 104.808 60.9045 105.109 61.3315 105.295C61.5611 105.396 61.784 105.411 62.0311 105.42C65.9873 104.529 69.1851 100.844 71.2744 97.5427C73.4887 94.0439 74.3326 91.08 75.147 87.0872C75.3565 86.0595 75.7025 84.7808 75.4723 83.7453C75.3911 83.3794 75.2212 83.0409 74.892 82.8411C74.6033 82.6659 74.2789 82.6338 73.9497 82.6081ZM92.7842 92.5938C92.2258 92.697 91.7701 92.8761 91.4392 93.3664C91.148 93.7977 91.0897 94.3752 91.2161 94.8728C91.4192 95.6725 92.0011 96.4209 92.4259 97.1219C93.8562 99.4819 95.1231 101.63 97.6086 103.043C98.4839 103.541 99.4144 103.906 100.432 103.926C101.011 103.726 101.477 103.409 101.738 102.835C101.885 102.513 101.912 102.155 101.785 101.822C101.366 100.729 99.4839 100.382 98.567 99.6931C97.7158 99.0538 96.9384 98.1439 96.352 97.2588C95.7339 96.3258 94.2967 93.05 93.4556 92.7119C93.243 92.6264 93.0108 92.6044 92.7842 92.5938ZM92.0664 100.555C91.5331 100.722 91.2084 100.931 90.8554 101.367C89.7201 102.768 88.8042 104.604 87.6717 106.112C86.7165 107.384 85.7251 108.648 84.6961 109.861C83.6036 111.148 81.7661 112.953 81.0519 114.365C80.8381 114.787 80.7958 115.158 80.9433 115.613C81.02 115.85 81.1533 116.072 81.2814 116.284C81.8273 116.613 82.1598 116.681 82.795 116.668C83.0828 116.548 83.325 116.423 83.5606 116.217C84.4595 115.429 85.2045 114.375 85.968 113.455C87.1112 112.079 88.2887 110.718 89.3753 109.297C90.323 108.057 91.1945 106.756 92.0789 105.471C92.6623 104.624 93.3962 103.708 93.8031 102.764C93.8572 102.639 93.8997 102.51 93.9373 102.379C93.8195 101.786 93.6809 101.236 93.1501 100.869C92.8214 100.641 92.4584 100.568 92.0664 100.555ZM96.017 104.144C95.7665 104.275 95.5422 104.405 95.3545 104.62C94.9058 105.136 91.214 110.415 91.1312 110.706C91.0245 111.08 91.0808 111.531 91.2953 111.856C91.5395 112.227 92.0217 112.511 92.4575 112.576C92.6819 112.61 92.9164 112.589 93.1419 112.576C93.3378 112.501 93.5223 112.42 93.6831 112.282C94.757 111.361 97.178 107.963 97.7608 106.646C97.9965 106.113 98.0856 105.492 97.8422 104.945C97.6817 104.583 97.4231 104.397 97.0583 104.266C96.6928 104.134 96.4026 104.107 96.017 104.144Z" fill="white"/>
<path d="M57.2641 63.0905C56.9012 62.9936 56.5183 62.8936 56.2261 62.6455C55.9423 62.4045 55.7769 62.0886 55.7514 61.7167C55.6308 59.9658 59.0512 55.2378 60.2284 53.9422C64.2555 49.5103 74.865 44.4494 80.7911 44.1736C82.6934 44.1389 84.6598 44.4478 86.5016 44.9181C93.9977 46.8324 101.983 54.6917 105.838 61.217C106.585 62.481 108.599 66.6678 108.16 68.0841C108.042 68.4667 107.651 68.818 107.298 68.9825C106.885 69.175 106.386 69.2691 105.955 69.0814C104.972 68.6541 104.474 66.2869 104.079 65.2653C103.65 64.1561 103.164 63.0864 102.536 62.0731C100.03 58.0305 94.9173 53.1088 90.8912 50.5783C89.9459 49.9842 88.9545 49.5092 87.9355 49.0597C85.0283 47.791 81.7234 47.0822 78.5848 47.8011C74.0511 48.8395 65.6292 52.8527 62.5403 56.3083C61.5342 57.4336 60.6492 58.7178 59.9117 60.0355C59.5119 60.7499 59.1545 61.4985 58.718 62.1908C58.2927 62.8655 58.0058 62.9266 57.2641 63.0905Z" fill="#25904A"/>
<path d="M67.5765 58.9392C64.4115 62.173 60.4761 66.7531 58.8645 71.0022C58.2425 72.6422 57.8917 74.3956 57.682 76.1345C57.4564 78.0042 57.4428 79.9062 57.3809 81.7872C57.3573 82.5036 57.4059 83.2844 57.2992 83.9908C57.2559 84.2773 57.1581 84.5627 56.9836 84.7964C56.7165 85.1541 56.2823 85.4097 55.839 85.4639C55.3814 85.5244 54.92 85.3839 54.5736 85.0789C54.1719 84.7203 54.0806 84.2667 54.0415 83.7517C53.9028 81.9264 54.1151 79.9627 54.242 78.1372C54.4222 75.5439 54.7384 72.8664 55.567 70.3902C57.1647 65.6158 60.988 61.297 64.2473 57.5645C68.1425 53.1038 74.0995 49.812 80.0436 49.4077C80.1001 49.403 80.1567 49.3975 80.2134 49.3947C85.1442 49.1449 90.2526 51.2948 93.909 54.5459C95.2706 55.7566 96.479 57.2113 97.6084 58.6378C98.6355 59.9352 103.269 66.4863 103.295 67.778C103.303 68.1527 103.137 68.5163 102.879 68.783C102.523 69.1513 101.981 69.3778 101.467 69.3567C101.112 69.3422 100.855 69.2145 100.614 68.9578C99.6458 67.9283 98.8914 66.5392 98.118 65.3559C96.4175 62.7542 94.7395 60.1967 92.55 57.9719C89.609 54.9836 85.395 52.7894 81.1525 52.7724C75.8958 52.7513 71.2273 55.3136 67.5765 58.9392Z" fill="#25904A"/>
<path d="M79.9372 58.6579C79.3658 58.6659 78.7841 58.7258 78.2197 58.8131C74.972 59.3156 72.3155 61.224 69.9466 63.3992C68.3819 64.8359 66.7608 66.2831 65.5653 68.0531C63.9572 70.4342 63.0145 73.4106 62.4842 76.2261C61.6278 80.7728 61.6225 88.8179 58.8887 92.4511C58.5428 92.9109 58.0328 93.4525 57.427 93.515C56.9503 93.564 56.49 93.355 56.1273 93.0578C55.8367 92.8197 55.6453 92.5045 55.6108 92.1268C55.5084 91.0053 56.5526 90.0375 57.0191 89.0948C57.25 88.6279 57.3811 88.0837 57.5019 87.5798C57.9333 85.7792 58.1047 83.8572 58.3345 82.0194C59.0942 75.9458 59.8667 69.7122 63.8834 64.8092C64.9636 63.4908 66.2039 62.3031 67.4708 61.1664C70.7953 58.1834 74.3216 55.7901 78.8706 55.3442C80.0587 55.1653 81.4769 55.3387 82.653 55.5031C88.57 56.3297 94.3495 59.8189 97.2773 65.0831C98.6656 67.5794 99.5845 70.3153 100.89 72.8581C103.026 77.0467 105.521 81.0429 108.345 84.8022C108.665 85.2334 108.931 85.7742 108.821 86.3254C108.709 86.8918 108.255 87.2518 107.802 87.5545C107.566 87.5897 107.329 87.6251 107.09 87.6195C106.725 87.6109 106.451 87.4886 106.181 87.2456C105.138 86.3062 104.302 84.8231 103.527 83.6545C101.473 80.5553 99.4608 77.417 97.7552 74.1079C95.9341 70.5748 94.8739 66.5489 91.9884 63.6656C88.9594 60.6386 84.2131 58.6642 79.9372 58.6579Z" fill="#25904A"/>
<path d="M59.715 94.4208C59.9513 93.2721 60.6374 92.6874 61.186 91.708C61.7744 90.6569 62.2074 89.4391 62.5199 88.2781C63.3355 85.2486 63.1735 82.8324 63.3238 79.7725C63.5238 75.6985 65.5258 71.518 68.16 68.4292C71.1361 64.9399 75.9089 62.2091 80.5202 61.8292C81.5183 61.7647 82.5007 61.7872 83.4891 61.9506C89.5897 62.9603 94.7289 68.425 97.048 73.9324C98.2067 76.6839 98.7186 79.3117 100.117 82.058C101.326 84.3992 102.746 86.6261 104.357 88.711C104.883 89.3874 105.541 89.9625 106.032 90.665C106.391 91.1802 106.808 91.8078 106.667 92.4664C106.568 92.9261 106.186 93.3091 105.785 93.53C105.413 93.7352 104.999 93.7724 104.594 93.6467C103.651 93.3542 102.787 92.0155 102.179 91.2739C99.4966 88.0027 97.1372 84.2383 95.6494 80.2661C94.8035 78.0077 94.2616 75.7447 93.0843 73.611C90.9553 69.7525 88.0408 66.7374 83.7289 65.5047C81.0305 64.9392 78.5839 65.3183 76.1032 66.4936C72.4313 68.2331 69.7508 71.065 68.028 74.7308C67.3794 76.1108 66.8816 77.541 66.6953 79.0592C66.556 80.1953 66.5775 81.3513 66.5396 82.4939C66.4472 85.2782 66.1655 88.0149 65.2177 90.6546C64.7639 91.9182 63.2583 95.1252 61.9752 95.6707C61.5827 95.8375 61.065 95.885 60.6692 95.7071C60.1132 95.4571 59.911 94.9533 59.715 94.4208Z" fill="#25904A"/>
<path d="M58.3739 98.5294C59.0367 97.6089 60.0406 97.4131 60.9839 96.8689C62.8767 95.7564 64.4439 94.1661 65.5287 92.2573C67.629 88.4759 67.589 86.0067 68.2239 82.0305C68.8193 78.3011 70.1879 74.7931 72.5775 71.8367C74.5912 69.345 77.4053 67.0947 80.6836 66.7491C82.3811 66.4837 84.1622 66.8847 85.6398 67.7294C89.6231 70.0064 93.5443 75.8059 94.6492 80.2475C95.3325 82.9941 95.3323 85.8667 96.9906 88.2734C98.1728 89.9891 99.5537 91.5955 100.96 93.1289C101.405 93.6133 101.846 94.1137 102.319 94.5697C102.972 95.1983 104.453 96.068 104.661 96.9633C104.755 97.3677 104.638 97.7886 104.416 98.1303C104.181 98.4939 103.855 98.772 103.421 98.8497C102.735 98.9723 102.069 98.6331 101.526 98.2475C99.2106 96.6039 94.3386 91.1384 93.2139 88.6134C92.3909 86.7658 92.0854 84.8263 91.7458 82.8534C91.5476 81.703 91.3017 80.5469 90.86 79.4625C89.8094 76.883 86.9067 72.6205 84.6518 71.048C83.3476 70.1386 82.0645 69.7433 80.4748 70.0353C78.7831 70.5281 77.2072 71.6603 76.0108 72.9275C73.5739 75.5084 72.2393 78.9147 71.6493 82.3697C71.3642 84.0395 71.1987 85.7328 70.8411 87.39C70.3565 89.6348 69.5843 91.7722 68.4426 93.7706C67.6764 95.1117 66.7843 96.3691 65.6683 97.4427C64.7636 98.3128 61.122 101.035 59.8425 100.972C59.4379 100.952 59.005 100.686 58.7469 100.383C58.2834 99.8389 58.3008 99.1945 58.3739 98.5294Z" fill="#25904A"/>
<path d="M102.14 70.6701C102.453 69.9331 102.764 69.5373 103.516 69.2267C103.766 69.2116 104.068 69.1962 104.311 69.2609C104.548 69.3242 104.743 69.4666 104.882 69.6664C105.533 70.5998 105.982 71.8567 106.51 72.8767C107.18 74.172 107.953 75.41 108.621 76.7014C108.835 77.1145 109.097 77.5347 108.933 78.0041C108.724 78.5998 108.201 78.9514 107.652 79.2014C107.308 79.2248 106.921 79.2489 106.607 79.0828C105.417 78.4536 102.547 72.1617 102.14 70.6701Z" fill="#25904A"/>
<path d="M75.8237 110.739C79.1359 108.467 82.524 104.267 84.5643 100.793C87.4307 95.9125 88.3064 90.2614 86.879 84.7615C86.1859 82.0909 85.1436 78.6381 82.6018 77.1725C81.7914 76.7051 80.9112 76.4881 79.9851 76.7115C77.3278 77.3525 76.7786 80.545 75.1973 80.8945C74.8414 80.9733 74.5079 80.8851 74.2089 80.6839C73.8045 80.412 73.4595 79.9903 73.3667 79.5034C73.2084 78.6729 73.7437 77.8644 74.2022 77.218C75.6203 75.2175 77.3611 73.8001 79.8123 73.3776C80.4686 73.3408 81.1237 73.2965 81.7786 73.3772C84.03 73.6542 85.8642 75.2044 87.1959 76.9528C89.3145 79.7345 90.5528 84.1378 90.8432 87.6061C91.0137 89.6419 90.9208 91.8261 90.6289 93.8489C89.7358 100.041 85.8323 105.54 81.575 109.93C80.4703 111.07 79.3476 112.225 78.0648 113.167C77.0948 113.879 75.2764 114.921 74.0314 114.695C73.572 114.612 73.1309 114.348 72.877 113.95C72.6618 113.613 72.61 113.222 72.7178 112.838C73.0908 111.508 74.7787 111.366 75.8237 110.739Z" fill="#25904A"/>
<path d="M81.7629 82.2803C79.8381 84.4611 79.2469 87.5594 79.4739 90.3795C79.5564 91.4051 79.842 92.3673 79.4712 93.3742C79.1512 94.2436 78.6586 95.0797 78.2173 95.8931C75.8075 100.335 72.4414 104.565 68.4201 107.652C67.7884 108.137 67.1153 108.702 66.3859 109.023C65.9011 109.236 65.3303 109.304 64.8353 109.081C64.4247 108.896 63.9608 108.505 63.8265 108.06C63.6703 107.543 63.9411 106.95 64.2762 106.563C64.9847 105.744 66.1986 105.202 67.0518 104.513C69.0637 102.89 70.9214 100.865 72.4809 98.8067C73.5184 97.4375 75.7514 94.2276 76.1256 92.663C76.3011 91.9289 76.1301 90.9872 76.1045 90.2294C76.0108 87.4545 76.4303 84.715 77.84 82.287C78.6656 80.865 79.8873 79.3489 81.5476 78.9159C81.6053 78.9087 81.6631 78.9025 81.7209 78.8967C82.4626 78.8261 83.0894 78.9961 83.6617 79.4903C84.9665 80.6172 85.3284 82.6644 85.4453 84.2901C85.702 87.8603 85.3281 92.4786 84.277 95.8937C83.2783 99.1386 81.4326 102.442 79.2011 105.011C77.6686 106.776 71.3986 112.512 69.2767 112.598C68.8253 112.616 68.4228 112.359 68.1086 112.053C67.8404 111.792 67.6703 111.464 67.674 111.084C67.6795 110.542 67.9636 110.065 68.3439 109.699C68.9801 109.086 69.9333 108.671 70.6742 108.175C72.3697 107.04 73.8669 105.838 75.2997 104.384C80.7545 98.8512 82.1725 93.3312 82.115 85.7122C82.1084 84.5786 81.9787 83.3926 81.7629 82.2803Z" fill="#25904A"/>
<path d="M60.7039 102.607C61.2425 102.215 61.9447 102.019 62.5539 101.756C63.3931 101.395 64.0933 100.883 64.778 100.283C68.2347 97.2544 70.782 92.1796 71.7464 87.7025C71.8627 87.1635 71.973 86.6161 72.036 86.068C72.1372 85.1864 72.0103 83.8572 72.6144 83.1538C72.9808 82.7271 73.4219 82.6669 73.9497 82.6082C74.2789 82.6338 74.6033 82.666 74.892 82.8411C75.2213 83.041 75.3911 83.3794 75.4724 83.7453C75.7025 84.7808 75.3566 86.0596 75.147 87.0872C74.3327 91.08 73.4888 94.0439 71.2744 97.5427C69.1852 100.844 65.9874 104.529 62.0311 105.42C61.7841 105.411 61.5611 105.396 61.3316 105.295C60.9045 105.109 60.5647 104.808 60.4169 104.357C60.2045 103.71 60.4217 103.182 60.7039 102.607Z" fill="#25904A"/>
<path d="M100.432 103.926C99.4144 103.906 98.484 103.541 97.6086 103.043C95.1232 101.63 93.8563 99.4819 92.426 97.1219C92.0011 96.4209 91.4193 95.6725 91.2161 94.8728C91.0897 94.3752 91.148 93.7977 91.4393 93.3664C91.7702 92.8761 92.2258 92.697 92.7843 92.5938C93.0108 92.6044 93.243 92.6264 93.4557 92.7119C94.2968 93.05 95.734 96.3258 96.3521 97.2588C96.9385 98.1439 97.7158 99.0538 98.5671 99.6931C99.484 100.382 101.366 100.729 101.785 101.822C101.912 102.155 101.885 102.513 101.738 102.835C101.477 103.409 101.011 103.726 100.432 103.926Z" fill="#25904A"/>
<path d="M81.2814 116.284C81.1533 116.072 81.02 115.85 80.9433 115.613C80.7958 115.158 80.8381 114.787 81.0519 114.365C81.7661 112.953 83.6036 111.148 84.6961 109.861C85.7251 108.648 86.7165 107.384 87.6717 106.112C88.8042 104.604 89.7201 102.768 90.8554 101.367C91.2084 100.931 91.5331 100.722 92.0664 100.555C92.4584 100.568 92.8214 100.641 93.1501 100.869C93.6809 101.236 93.8195 101.786 93.9373 102.379C93.8997 102.51 93.8572 102.639 93.8031 102.764C93.3962 103.708 92.6623 104.624 92.0789 105.471C91.1945 106.756 90.323 108.057 89.3753 109.297C88.2887 110.718 87.1112 112.079 85.968 113.455C85.2045 114.375 84.4595 115.429 83.5606 116.217C83.325 116.423 83.0828 116.548 82.795 116.668C82.1598 116.681 81.8273 116.613 81.2814 116.284Z" fill="#25904A"/>
<path d="M93.1418 112.576C92.9163 112.589 92.6818 112.61 92.4574 112.576C92.0217 112.511 91.5395 112.227 91.2953 111.856C91.0807 111.531 91.0245 111.08 91.1312 110.706C91.214 110.415 94.9057 105.136 95.3545 104.62C95.5421 104.405 95.7665 104.275 96.017 104.144C96.4026 104.107 96.6927 104.134 97.0582 104.266C97.4231 104.397 97.6817 104.583 97.8421 104.945C98.0856 105.492 97.9965 106.113 97.7607 106.646C97.1779 107.963 94.757 111.361 93.6831 112.282C93.5223 112.42 93.3378 112.501 93.1418 112.576Z" fill="#25904A"/>
</svg>
