<svg width="24" height="24" viewBox="0 0 24 24" fill="none" xmlns="http://www.w3.org/2000/svg">
<mask id="path-1-inside-1_397_1762" fill="white">
<path fill-rule="evenodd" clip-rule="evenodd" d="M18.7309 4.78648L19.1525 5.34109C19.2632 5.48746 19.2356 5.69727 19.0891 5.80787L18.6414 6.14779C18.7228 6.3641 18.7749 6.59506 18.7961 6.83089L19.3056 6.90082C19.4879 6.92522 19.6148 7.09437 19.5904 7.27653L19.496 7.96776C19.4716 8.14992 19.3023 8.2784 19.12 8.25238L18.5633 8.17594C18.464 8.39225 18.337 8.59068 18.1872 8.76796L18.4998 9.17781C18.6105 9.32419 18.5812 9.534 18.4347 9.6446L17.8796 10.0658C17.7331 10.1764 17.5231 10.1472 17.4124 10.0024L17.0722 9.55514C16.8541 9.63646 16.6245 9.68851 16.3869 9.70965L16.3169 10.2187C16.2925 10.4009 16.1232 10.5277 15.9409 10.5033L15.249 10.409C15.0667 10.3846 14.9398 10.2155 14.9642 10.0333L15.0407 9.47708C14.8258 9.37786 14.6256 9.251 14.4482 9.103L14.038 9.41365C13.8914 9.52424 13.6815 9.49659 13.5708 9.35021L13.1492 8.7956C13.0385 8.64923 13.0661 8.43942 13.2126 8.32882L13.6603 7.9889C13.5789 7.77096 13.5268 7.54163 13.5057 7.3058L12.9962 7.23587C12.8138 7.21147 12.6852 7.04232 12.7113 6.86016L12.8057 6.16893C12.8317 5.98677 12.9994 5.85991 13.1817 5.88431L13.7384 5.96075C13.8377 5.74606 13.9647 5.54601 14.1128 5.36873L13.8019 4.95888C13.6912 4.81413 13.7189 4.60432 13.8654 4.49372L14.4205 4.07248C14.567 3.96188 14.777 3.98953 14.8877 4.13591L15.2279 4.58317C15.4444 4.50185 15.6755 4.44981 15.9116 4.42866L15.9816 3.91959C16.006 3.73743 16.1753 3.60895 16.3576 3.63334L17.0494 3.72768C17.2317 3.75207 17.3603 3.92122 17.3343 4.10338L17.2578 4.65962C17.4743 4.75883 17.6729 4.88569 17.8519 5.03532L18.2621 4.72467C18.4086 4.61245 18.6186 4.6401 18.7309 4.78648ZM6.82837 14.5466V11.863H8.21201C8.4692 11.863 8.66454 11.8842 8.79965 11.9297C8.93476 11.9736 9.04545 12.055 9.12684 12.1737C9.20986 12.294 9.25218 12.4388 9.25218 12.6096C9.25218 12.7576 9.21962 12.8877 9.15614 12.995C9.09266 13.104 9.00475 13.1918 8.89406 13.2585C8.82407 13.3008 8.7264 13.3366 8.60268 13.3642C8.70198 13.3984 8.7736 13.4293 8.81755 13.4634C8.84848 13.4862 8.89243 13.5334 8.94941 13.6049C9.00638 13.6765 9.04545 13.7334 9.06498 13.7725L9.46868 14.5483H8.53106L8.08829 13.7302C8.03132 13.6244 7.98249 13.5545 7.93854 13.5236C7.87831 13.483 7.80994 13.4618 7.73506 13.4618H7.66181V14.5483H6.82837V14.5466ZM9.75518 19.2193H8.2055L7.98249 19.948H6.58582L8.25108 15.5257H9.74866L11.4074 19.948H9.97493L9.75518 19.2193ZM9.46542 18.2614L8.98196 16.6707L8.49687 18.2614H9.46542ZM11.7297 15.5257H14.0054C14.5019 15.5257 14.873 15.6428 15.1188 15.8787C15.3646 16.1145 15.4883 16.4512 15.4883 16.8854C15.4883 17.3327 15.3532 17.6824 15.0846 17.9345C14.816 18.1866 14.4042 18.3118 13.8524 18.3118H13.102V19.948H11.7297V15.5257ZM13.102 17.4156H13.4389C13.7042 17.4156 13.8914 17.3701 13.9989 17.2774C14.1063 17.1863 14.16 17.0676 14.16 16.9261C14.16 16.7878 14.1128 16.6691 14.02 16.5732C13.9273 16.4772 13.7515 16.4284 13.4943 16.4284H13.102V17.4156ZM16.0418 15.5257H17.414V19.948H16.0418V15.5257ZM7.66181 12.9527H8.01179C8.04923 12.9527 8.12248 12.9397 8.23154 12.9153C8.28689 12.9039 8.33247 12.8763 8.36665 12.8308C8.40246 12.7852 8.41874 12.7332 8.41874 12.6746C8.41874 12.5884 8.39107 12.5201 8.33572 12.4746C8.28038 12.4274 8.17782 12.4046 8.02644 12.4046H7.66181V12.9527ZM9.62821 11.863H11.8502V12.4355H10.4616V12.8633H11.7492V13.4098H10.4616V13.9383H11.8909V14.545H9.62821V11.863ZM12.0878 13.6586L12.8757 13.6098C12.892 13.7383 12.9278 13.8343 12.9799 13.9009C13.0661 14.0083 13.1882 14.0636 13.3461 14.0636C13.4633 14.0636 13.5561 14.0359 13.6196 13.9806C13.6831 13.9253 13.7156 13.8603 13.7156 13.7871C13.7156 13.7172 13.6847 13.6554 13.6245 13.6001C13.5643 13.5448 13.4226 13.4943 13.1996 13.4439C12.8366 13.3626 12.5778 13.2536 12.4215 13.1186C12.2653 12.9836 12.1871 12.8112 12.1871 12.6014C12.1871 12.4632 12.2278 12.3331 12.3076 12.2111C12.3873 12.0891 12.5078 11.9915 12.669 11.9216C12.8301 11.8517 13.0499 11.8175 13.3299 11.8175C13.6733 11.8175 13.9338 11.8809 14.1145 12.0094C14.2935 12.1379 14.401 12.3396 14.4351 12.6193L13.6554 12.6665C13.6343 12.5445 13.5903 12.4551 13.5252 12.4014C13.4584 12.3461 13.3657 12.3184 13.2501 12.3184C13.154 12.3184 13.0808 12.3396 13.032 12.3802C12.9831 12.4209 12.9587 12.4713 12.9587 12.5299C12.9587 12.5722 12.9799 12.6096 13.0189 12.6453C13.058 12.6795 13.1492 12.7137 13.2957 12.7446C13.6587 12.8226 13.9191 12.9023 14.0754 12.982C14.2317 13.0617 14.3472 13.1609 14.4172 13.2796C14.4889 13.3968 14.5247 13.5301 14.5247 13.6765C14.5247 13.8489 14.4775 14.0067 14.3814 14.1514C14.287 14.2962 14.1535 14.4068 13.9826 14.4816C13.8117 14.5564 13.5968 14.5938 13.3364 14.5938C12.8806 14.5938 12.5632 14.506 12.3873 14.3303C12.2115 14.1514 12.1122 13.9286 12.0878 13.6586ZM14.6451 11.863H17.1699V12.5266H16.3234V14.5466H15.4932V12.5266H14.6451V11.863ZM11.8518 5.49397C11.5539 5.4712 11.2528 5.47445 10.9549 5.50373C10.0384 5.59155 9.148 5.92497 8.41223 6.49584C7.56088 7.15455 6.91464 8.14016 6.66558 9.44617L6.58745 9.85441L6.1805 9.92597C5.78168 9.9959 5.42519 10.0919 5.11265 10.2138C4.80988 10.3309 4.53966 10.4757 4.30363 10.6465C4.1148 10.7831 3.95202 10.936 3.81366 11.1019C3.38554 11.6142 3.18695 12.2566 3.19183 12.9072C3.19671 13.5675 3.41159 14.2344 3.80877 14.7825C3.9569 14.9858 4.12782 15.1728 4.32316 15.3354C4.52175 15.4997 4.74476 15.6363 4.99545 15.7388C5.13707 15.7973 5.28845 15.8461 5.44635 15.8852V17.1034C5.12079 17.0448 4.82127 16.957 4.54129 16.8415C4.17177 16.6886 3.84458 16.4918 3.55646 16.2511C3.28299 16.0234 3.0437 15.7648 2.84022 15.4834C2.29816 14.7353 2.00515 13.8212 1.99864 12.9105C1.99213 11.9899 2.27863 11.0742 2.8972 10.3326C3.09742 10.0919 3.33345 9.87067 3.60367 9.6755C3.91784 9.4478 4.27758 9.25588 4.68454 9.09812C4.96452 8.98915 5.26404 8.89807 5.57983 8.82488C5.93795 7.40339 6.7014 6.30881 7.68297 5.54927C8.60105 4.83852 9.70634 4.42378 10.8442 4.31481C11.4416 4.25789 12.0471 4.28391 12.6397 4.39451C12.6266 4.44818 12.6152 4.50185 12.6087 4.55715L12.6071 4.56691C12.5957 4.65962 12.5908 4.75232 12.5957 4.84665C12.4704 4.89545 12.3532 4.96213 12.2474 5.04345L12.2425 5.0467C12.0846 5.16543 11.9511 5.31832 11.8518 5.49397ZM20.4646 8.6167C20.5557 8.69965 20.6436 8.78585 20.7299 8.87855C20.9041 9.06559 21.0685 9.27703 21.2231 9.51286C21.744 10.3131 22.011 11.3816 21.9996 12.4274C21.9882 13.4537 21.7115 14.4751 21.145 15.2265C20.7755 15.716 20.3018 16.1161 19.7337 16.4333C19.3446 16.6512 18.9067 16.8318 18.4298 16.9781V15.7177C18.687 15.6217 18.9263 15.5144 19.146 15.3924C19.5741 15.1533 19.9241 14.8622 20.1862 14.5125C20.5932 13.9709 20.7934 13.2048 20.8015 12.4193C20.8113 11.5947 20.6094 10.7668 20.2171 10.1651C20.1048 9.99102 19.9811 9.83489 19.8509 9.69502C19.8004 9.64134 19.7499 9.59092 19.6979 9.54213C19.706 9.46081 19.7093 9.37786 19.7044 9.29492C19.8297 9.24612 19.9469 9.17944 20.0527 9.09812L20.0576 9.09487C20.2253 8.96638 20.3653 8.80374 20.4646 8.6167ZM16.3364 5.71191C17.0868 5.81437 17.611 6.5056 17.5084 7.25538C17.4059 8.00516 16.7141 8.5305 15.9637 8.42803C15.2132 8.32557 14.6874 7.63434 14.7916 6.88456C14.8958 6.13478 15.586 5.60945 16.3364 5.71191Z"/>
</mask>
<path fill-rule="evenodd" clip-rule="evenodd" d="M18.7309 4.78648L19.1525 5.34109C19.2632 5.48746 19.2356 5.69727 19.0891 5.80787L18.6414 6.14779C18.7228 6.3641 18.7749 6.59506 18.7961 6.83089L19.3056 6.90082C19.4879 6.92522 19.6148 7.09437 19.5904 7.27653L19.496 7.96776C19.4716 8.14992 19.3023 8.2784 19.12 8.25238L18.5633 8.17594C18.464 8.39225 18.337 8.59068 18.1872 8.76796L18.4998 9.17781C18.6105 9.32419 18.5812 9.534 18.4347 9.6446L17.8796 10.0658C17.7331 10.1764 17.5231 10.1472 17.4124 10.0024L17.0722 9.55514C16.8541 9.63646 16.6245 9.68851 16.3869 9.70965L16.3169 10.2187C16.2925 10.4009 16.1232 10.5277 15.9409 10.5033L15.249 10.409C15.0667 10.3846 14.9398 10.2155 14.9642 10.0333L15.0407 9.47708C14.8258 9.37786 14.6256 9.251 14.4482 9.103L14.038 9.41365C13.8914 9.52424 13.6815 9.49659 13.5708 9.35021L13.1492 8.7956C13.0385 8.64923 13.0661 8.43942 13.2126 8.32882L13.6603 7.9889C13.5789 7.77096 13.5268 7.54163 13.5057 7.3058L12.9962 7.23587C12.8138 7.21147 12.6852 7.04232 12.7113 6.86016L12.8057 6.16893C12.8317 5.98677 12.9994 5.85991 13.1817 5.88431L13.7384 5.96075C13.8377 5.74606 13.9647 5.54601 14.1128 5.36873L13.8019 4.95888C13.6912 4.81413 13.7189 4.60432 13.8654 4.49372L14.4205 4.07248C14.567 3.96188 14.777 3.98953 14.8877 4.13591L15.2279 4.58317C15.4444 4.50185 15.6755 4.44981 15.9116 4.42866L15.9816 3.91959C16.006 3.73743 16.1753 3.60895 16.3576 3.63334L17.0494 3.72768C17.2317 3.75207 17.3603 3.92122 17.3343 4.10338L17.2578 4.65962C17.4743 4.75883 17.6729 4.88569 17.8519 5.03532L18.2621 4.72467C18.4086 4.61245 18.6186 4.6401 18.7309 4.78648ZM6.82837 14.5466V11.863H8.21201C8.4692 11.863 8.66454 11.8842 8.79965 11.9297C8.93476 11.9736 9.04545 12.055 9.12684 12.1737C9.20986 12.294 9.25218 12.4388 9.25218 12.6096C9.25218 12.7576 9.21962 12.8877 9.15614 12.995C9.09266 13.104 9.00475 13.1918 8.89406 13.2585C8.82407 13.3008 8.7264 13.3366 8.60268 13.3642C8.70198 13.3984 8.7736 13.4293 8.81755 13.4634C8.84848 13.4862 8.89243 13.5334 8.94941 13.6049C9.00638 13.6765 9.04545 13.7334 9.06498 13.7725L9.46868 14.5483H8.53106L8.08829 13.7302C8.03132 13.6244 7.98249 13.5545 7.93854 13.5236C7.87831 13.483 7.80994 13.4618 7.73506 13.4618H7.66181V14.5483H6.82837V14.5466ZM9.75518 19.2193H8.2055L7.98249 19.948H6.58582L8.25108 15.5257H9.74866L11.4074 19.948H9.97493L9.75518 19.2193ZM9.46542 18.2614L8.98196 16.6707L8.49687 18.2614H9.46542ZM11.7297 15.5257H14.0054C14.5019 15.5257 14.873 15.6428 15.1188 15.8787C15.3646 16.1145 15.4883 16.4512 15.4883 16.8854C15.4883 17.3327 15.3532 17.6824 15.0846 17.9345C14.816 18.1866 14.4042 18.3118 13.8524 18.3118H13.102V19.948H11.7297V15.5257ZM13.102 17.4156H13.4389C13.7042 17.4156 13.8914 17.3701 13.9989 17.2774C14.1063 17.1863 14.16 17.0676 14.16 16.9261C14.16 16.7878 14.1128 16.6691 14.02 16.5732C13.9273 16.4772 13.7515 16.4284 13.4943 16.4284H13.102V17.4156ZM16.0418 15.5257H17.414V19.948H16.0418V15.5257ZM7.66181 12.9527H8.01179C8.04923 12.9527 8.12248 12.9397 8.23154 12.9153C8.28689 12.9039 8.33247 12.8763 8.36665 12.8308C8.40246 12.7852 8.41874 12.7332 8.41874 12.6746C8.41874 12.5884 8.39107 12.5201 8.33572 12.4746C8.28038 12.4274 8.17782 12.4046 8.02644 12.4046H7.66181V12.9527ZM9.62821 11.863H11.8502V12.4355H10.4616V12.8633H11.7492V13.4098H10.4616V13.9383H11.8909V14.545H9.62821V11.863ZM12.0878 13.6586L12.8757 13.6098C12.892 13.7383 12.9278 13.8343 12.9799 13.9009C13.0661 14.0083 13.1882 14.0636 13.3461 14.0636C13.4633 14.0636 13.5561 14.0359 13.6196 13.9806C13.6831 13.9253 13.7156 13.8603 13.7156 13.7871C13.7156 13.7172 13.6847 13.6554 13.6245 13.6001C13.5643 13.5448 13.4226 13.4943 13.1996 13.4439C12.8366 13.3626 12.5778 13.2536 12.4215 13.1186C12.2653 12.9836 12.1871 12.8112 12.1871 12.6014C12.1871 12.4632 12.2278 12.3331 12.3076 12.2111C12.3873 12.0891 12.5078 11.9915 12.669 11.9216C12.8301 11.8517 13.0499 11.8175 13.3299 11.8175C13.6733 11.8175 13.9338 11.8809 14.1145 12.0094C14.2935 12.1379 14.401 12.3396 14.4351 12.6193L13.6554 12.6665C13.6343 12.5445 13.5903 12.4551 13.5252 12.4014C13.4584 12.3461 13.3657 12.3184 13.2501 12.3184C13.154 12.3184 13.0808 12.3396 13.032 12.3802C12.9831 12.4209 12.9587 12.4713 12.9587 12.5299C12.9587 12.5722 12.9799 12.6096 13.0189 12.6453C13.058 12.6795 13.1492 12.7137 13.2957 12.7446C13.6587 12.8226 13.9191 12.9023 14.0754 12.982C14.2317 13.0617 14.3472 13.1609 14.4172 13.2796C14.4889 13.3968 14.5247 13.5301 14.5247 13.6765C14.5247 13.8489 14.4775 14.0067 14.3814 14.1514C14.287 14.2962 14.1535 14.4068 13.9826 14.4816C13.8117 14.5564 13.5968 14.5938 13.3364 14.5938C12.8806 14.5938 12.5632 14.506 12.3873 14.3303C12.2115 14.1514 12.1122 13.9286 12.0878 13.6586ZM14.6451 11.863H17.1699V12.5266H16.3234V14.5466H15.4932V12.5266H14.6451V11.863ZM11.8518 5.49397C11.5539 5.4712 11.2528 5.47445 10.9549 5.50373C10.0384 5.59155 9.148 5.92497 8.41223 6.49584C7.56088 7.15455 6.91464 8.14016 6.66558 9.44617L6.58745 9.85441L6.1805 9.92597C5.78168 9.9959 5.42519 10.0919 5.11265 10.2138C4.80988 10.3309 4.53966 10.4757 4.30363 10.6465C4.1148 10.7831 3.95202 10.936 3.81366 11.1019C3.38554 11.6142 3.18695 12.2566 3.19183 12.9072C3.19671 13.5675 3.41159 14.2344 3.80877 14.7825C3.9569 14.9858 4.12782 15.1728 4.32316 15.3354C4.52175 15.4997 4.74476 15.6363 4.99545 15.7388C5.13707 15.7973 5.28845 15.8461 5.44635 15.8852V17.1034C5.12079 17.0448 4.82127 16.957 4.54129 16.8415C4.17177 16.6886 3.84458 16.4918 3.55646 16.2511C3.28299 16.0234 3.0437 15.7648 2.84022 15.4834C2.29816 14.7353 2.00515 13.8212 1.99864 12.9105C1.99213 11.9899 2.27863 11.0742 2.8972 10.3326C3.09742 10.0919 3.33345 9.87067 3.60367 9.6755C3.91784 9.4478 4.27758 9.25588 4.68454 9.09812C4.96452 8.98915 5.26404 8.89807 5.57983 8.82488C5.93795 7.40339 6.7014 6.30881 7.68297 5.54927C8.60105 4.83852 9.70634 4.42378 10.8442 4.31481C11.4416 4.25789 12.0471 4.28391 12.6397 4.39451C12.6266 4.44818 12.6152 4.50185 12.6087 4.55715L12.6071 4.56691C12.5957 4.65962 12.5908 4.75232 12.5957 4.84665C12.4704 4.89545 12.3532 4.96213 12.2474 5.04345L12.2425 5.0467C12.0846 5.16543 11.9511 5.31832 11.8518 5.49397ZM20.4646 8.6167C20.5557 8.69965 20.6436 8.78585 20.7299 8.87855C20.9041 9.06559 21.0685 9.27703 21.2231 9.51286C21.744 10.3131 22.011 11.3816 21.9996 12.4274C21.9882 13.4537 21.7115 14.4751 21.145 15.2265C20.7755 15.716 20.3018 16.1161 19.7337 16.4333C19.3446 16.6512 18.9067 16.8318 18.4298 16.9781V15.7177C18.687 15.6217 18.9263 15.5144 19.146 15.3924C19.5741 15.1533 19.9241 14.8622 20.1862 14.5125C20.5932 13.9709 20.7934 13.2048 20.8015 12.4193C20.8113 11.5947 20.6094 10.7668 20.2171 10.1651C20.1048 9.99102 19.9811 9.83489 19.8509 9.69502C19.8004 9.64134 19.7499 9.59092 19.6979 9.54213C19.706 9.46081 19.7093 9.37786 19.7044 9.29492C19.8297 9.24612 19.9469 9.17944 20.0527 9.09812L20.0576 9.09487C20.2253 8.96638 20.3653 8.80374 20.4646 8.6167ZM16.3364 5.71191C17.0868 5.81437 17.611 6.5056 17.5084 7.25538C17.4059 8.00516 16.7141 8.5305 15.9637 8.42803C15.2132 8.32557 14.6874 7.63434 14.7916 6.88456C14.8958 6.13478 15.586 5.60945 16.3364 5.71191Z" fill="#25904A" stroke="#25904A" stroke-width="2" mask="url(#path-1-inside-1_397_1762)"/>
</svg>
