<svg viewBox="0 0 160 160" fill="none" xmlns="http://www.w3.org/2000/svg">
<path d="M110.778 133.829C102.897 133.912 95.0171 134.086 87.1401 134.353L48.0674 135.321L31.2632 135.668L26.5743 135.756C25.4148 135.78 24.2223 135.841 23.0656 135.736C21.9103 135.631 20.7587 135.202 19.8999 134.405C18.736 133.325 18.4168 131.908 18.3584 130.382C18.2106 126.513 18.6028 122.579 18.779 118.713C19.0592 112.314 19.2565 105.913 19.3709 99.5092C19.5892 81.5737 18.8588 63.6095 18.2785 45.6858C18.1526 41.7942 18.2274 37.9106 18.2524 34.0189C18.2621 32.518 18.1024 30.1312 18.3535 28.7316C18.5187 27.8105 18.9607 26.9967 19.6062 26.3261C20.214 25.6909 21.0113 25.27 21.8787 25.1267C22.979 24.9402 24.1737 25.04 25.2854 25.0602C26.9218 25.0962 28.5588 25.1006 30.1954 25.0734C33.4301 24.9902 36.6607 24.7341 39.8921 24.5769C42.0788 24.4791 44.2674 24.4245 46.4563 24.4133C53.4037 24.3495 60.3801 24.7366 67.3274 24.8883L103.884 25.6136C111.789 25.7631 119.692 25.9598 127.594 26.2039C129.485 26.2572 131.376 26.2942 133.267 26.3148C134.633 26.3286 136.025 26.2859 137.385 26.4275C138.352 26.5281 139.476 26.8941 140.194 27.5662C141.34 28.6384 141.721 29.9462 141.768 31.4748C141.834 33.6059 141.721 35.7819 141.68 37.9159L141.269 52.6977L140.279 88.885L139.56 116.02L139.412 124.174C139.384 125.74 139.41 127.322 139.257 128.881C139.13 130.173 138.762 131.535 137.831 132.491C137.129 133.212 136.112 133.504 135.147 133.682C132.453 134.183 129.517 134.078 126.779 134.075C121.443 134.068 116.114 133.829 110.778 133.829ZM41.7677 29.0975C37.4393 29.2309 33.1296 29.6595 28.8056 29.8173C26.9103 29.8866 25.0087 29.8472 23.1129 29.8078C23.2173 33.7742 23.0899 37.7503 23.1218 41.7189C29.6215 41.8758 36.1171 41.7758 42.6171 41.7437C52.7599 41.7731 62.9028 41.7092 73.0443 41.552C78.5078 41.5094 83.9634 41.6889 89.4242 41.6905C99.2154 41.6934 109.031 41.4162 118.809 42.0972C122.972 42.3198 127.119 42.7291 131.289 42.862C133.183 42.9223 135.058 42.8277 136.95 42.8073C137.025 38.8619 136.962 34.9211 136.943 30.9756L79.4921 29.7314L57.3338 29.1944C52.1734 29.073 46.9221 28.842 41.7677 29.0975ZM23.2006 46.3367C23.0942 51.753 23.2328 57.1783 23.2562 62.5955L23.4368 96.7959L23.5343 119.314L23.5267 126.493C23.5212 127.953 23.4671 129.434 23.5545 130.89L71.8246 129.961L134.597 128.515C134.883 126.559 134.737 124.363 134.835 122.369C135.184 115.247 135.258 108.103 135.449 100.976C135.819 89.2469 136.125 77.5156 136.368 65.7828C136.513 59.6864 136.742 53.5714 136.744 47.4736C134.072 47.1962 131.374 46.8252 128.693 46.6792C124.681 46.4609 120.619 46.5728 116.599 46.5645C109.865 46.4873 103.131 46.4725 96.3967 46.5197L63.401 46.4742C50.0009 46.6042 36.5995 46.5584 23.2006 46.3367Z" fill="#141413"/>
<path d="M23.1129 29.8078C25.0087 29.8472 26.9103 29.8865 28.8056 29.8173C33.1296 29.6595 37.4393 29.2309 41.7678 29.0975C46.9221 28.842 52.1734 29.0729 57.3339 29.1944L79.4921 29.7314L136.943 30.9756C136.962 34.9211 137.025 38.8619 136.95 42.8073C135.058 42.8276 133.183 42.9223 131.289 42.862C127.119 42.729 122.972 42.3198 118.809 42.0972C109.031 41.4162 99.2154 41.6934 89.4242 41.6904C83.9634 41.6889 78.5078 41.5094 73.0443 41.552C62.9028 41.7092 52.7599 41.7731 42.6171 41.7437C36.1171 41.7758 29.6215 41.8758 23.1218 41.7189C23.0899 37.7503 23.2173 33.7742 23.1129 29.8078ZM58.5139 31.7176C56.6604 31.9933 55.3871 33.7273 55.679 35.5784C55.9709 37.4294 57.7159 38.6875 59.5643 38.3795C61.3901 38.0751 62.6293 36.3562 62.341 34.5279C62.0528 32.6995 60.3446 31.4453 58.5139 31.7176ZM43.821 31.8726C41.9729 32.1106 40.6715 33.8072 40.9206 35.6537C41.1696 37.5003 42.874 38.7915 44.7192 38.5312C46.5484 38.2731 47.826 36.5864 47.5792 34.7556C47.3323 32.9248 45.6534 31.6369 43.821 31.8726ZM28.6795 32.3259C26.8903 32.7637 25.7903 34.5637 26.2167 36.3556C26.6431 38.1475 28.436 39.2592 30.2306 38.8442C32.0415 38.4254 33.1653 36.6126 32.7349 34.8045C32.3048 32.9964 30.4848 31.884 28.6795 32.3259ZM85.7812 35.1789C85.2748 35.2561 84.7688 35.3464 84.4413 35.7804C84.2084 36.0892 84.0625 36.559 84.1371 36.9442C84.2093 37.3159 84.4596 37.6012 84.7732 37.7992C85.2364 38.0915 85.7907 38.1798 86.3279 38.215C89.0812 38.3953 91.9379 38.1867 94.7013 38.1653C99.9984 38.1245 105.296 38.1489 110.592 38.2386C115.099 38.3486 119.604 38.4928 124.109 38.6714C126.319 38.752 128.588 38.9687 130.796 38.895C131.363 38.7725 131.782 38.5706 132.118 38.0776C132.346 37.7429 132.467 37.3315 132.368 36.9298C132.278 36.5612 131.991 36.2306 131.662 36.0478C130.76 35.5472 124.871 36.0044 123.521 36.0295C115.219 36.1708 106.915 36.0845 98.6182 35.7708C95.8298 35.6629 93.0335 35.5847 90.2478 35.4289C88.8104 35.3484 87.2092 35.074 85.7812 35.1789Z" fill="white"/>
<path d="M59.5644 38.3795C57.716 38.6875 55.971 37.4293 55.6791 35.5784C55.3872 33.7273 56.6605 31.9933 58.514 31.7176C60.3447 31.4453 62.0529 32.6995 62.3411 34.5279C62.6294 36.3562 61.3902 38.0751 59.5644 38.3795Z" fill="#25904A"/>
<path d="M44.7193 38.5313C42.8741 38.7916 41.1697 37.5003 40.9207 35.6538C40.6716 33.8072 41.973 32.1107 43.8212 31.8727C45.6535 31.6369 47.3324 32.9249 47.5793 34.7557C47.8262 36.5864 46.5485 38.2732 44.7193 38.5313Z" fill="#25904A"/>
<path d="M30.2307 38.8442C28.4361 39.2592 26.6432 38.1475 26.2168 36.3556C25.7904 34.5637 26.8904 32.7637 28.6796 32.3259C30.4849 31.884 32.3049 32.9964 32.735 34.8045C33.1654 36.6126 32.0416 38.4254 30.2307 38.8442Z" fill="#25904A"/>
<path d="M130.796 38.895C128.588 38.9687 126.319 38.752 124.109 38.6714C119.604 38.4928 115.099 38.3486 110.592 38.2386C105.296 38.1489 99.9985 38.1245 94.7014 38.1653C91.938 38.1867 89.0813 38.3953 86.328 38.215C85.7908 38.1798 85.2364 38.0915 84.7733 37.7992C84.4597 37.6012 84.2094 37.3159 84.1372 36.9442C84.0625 36.559 84.2085 36.0892 84.4414 35.7805C84.7689 35.3464 85.2749 35.2561 85.7813 35.1789C87.2092 35.074 88.8105 35.3484 90.2478 35.4289C93.0336 35.5847 95.8299 35.663 98.6183 35.7708C106.915 36.0845 115.219 36.1708 123.521 36.0295C124.871 36.0044 130.76 35.5472 131.662 36.0478C131.991 36.2306 132.278 36.5612 132.368 36.9298C132.467 37.3315 132.346 37.743 132.118 38.0776C131.783 38.5706 131.363 38.7725 130.796 38.895Z" fill="#141413"/>
<path d="M23.5545 130.89C23.4671 129.434 23.5212 127.953 23.5267 126.493L23.5343 119.314L23.4368 96.796L23.2562 62.5955C23.2328 57.1783 23.0942 51.753 23.2006 46.3367C36.5995 46.5584 50.0009 46.6042 63.4011 46.4742L96.3967 46.5197C103.131 46.4725 109.865 46.4874 116.599 46.5645C120.619 46.5728 124.681 46.461 128.693 46.6792C131.374 46.8252 134.072 47.1963 136.744 47.4736C136.742 53.5714 136.513 59.6864 136.368 65.7828C136.125 77.5156 135.819 89.2469 135.449 100.976C135.258 108.103 135.184 115.248 134.835 122.369C134.737 124.363 134.883 126.559 134.597 128.515L71.8247 129.961L23.5545 130.89ZM89.9157 57.4358C88.2792 57.8625 86.6661 58.4158 85.0515 58.9195C83.997 59.2486 82.8497 59.5114 81.8509 59.976C81.4817 61.4349 81.2553 62.9316 80.9389 64.4033L78.3293 76.5917L70.3192 112.266C70.0662 113.401 69.8032 114.534 69.5303 115.665C69.3471 116.412 69.0748 117.209 69.0095 117.976C68.9901 118.203 68.9834 118.403 69.1007 118.605C69.1601 118.707 69.267 118.771 69.3851 118.79C69.4503 118.801 69.5606 118.78 69.6275 118.77C70.6362 118.498 77.5668 116.829 77.8075 116.428C78.2648 115.667 78.5511 113.696 78.7672 112.758L80.9026 103.165C84.0261 89.5599 86.9725 75.9147 89.7412 62.233C89.9642 61.0964 90.2803 59.9775 90.5015 58.8399C90.5636 58.5213 90.6822 57.9778 90.5434 57.6753C90.4786 57.5339 90.3592 57.4406 90.2034 57.4222C90.134 57.4139 89.9887 57.4295 89.9157 57.4358ZM100.513 61.7928C100.224 61.9064 99.9732 62.0222 99.7326 62.2213C98.9823 62.8424 95.0137 66.8058 94.7126 67.4747C94.5747 67.7811 94.5195 68.2275 94.6565 68.5425C94.812 68.8995 95.1632 69.2499 95.4401 69.5238C96.3279 70.402 97.295 71.2202 98.2239 72.0563L102.866 76.2297C105.813 78.8689 108.741 81.5277 111.652 84.2063C112.879 85.3247 114.549 86.5963 115.553 87.8927C114.794 89.2069 112.456 91.012 111.267 92.0838L104.655 98.0917C103.088 99.5011 94.9936 106.561 94.475 107.58C94.3826 107.762 94.4154 107.926 94.4757 108.114C94.5834 108.449 94.8053 108.765 95.0311 109.031C95.5495 109.641 99.5098 113.605 100.027 113.846C100.099 113.88 100.174 113.91 100.248 113.942C101.003 113.966 101.435 113.698 101.975 113.198C102.904 112.336 103.769 111.383 104.675 110.495L113.517 101.778L121.786 93.6774C123.396 92.1122 125.097 90.5949 126.634 88.9619C126.845 88.7367 126.957 88.5439 126.96 88.2263C126.967 87.4458 126.296 86.9841 125.78 86.4899C120.197 81.0836 114.697 75.5919 109.282 70.0169L104.145 64.8258C103.327 63.9963 102.537 63.0508 101.655 62.2942C101.333 62.018 100.947 61.8053 100.513 61.7928ZM58.8928 61.9669C58.5415 62.0942 58.3153 62.2791 58.0514 62.5363C53.2957 67.1725 48.7184 72.005 44.0217 76.7025L37.8136 82.8475C36.7625 83.8713 33.5876 86.6486 33.0125 87.7538C32.8912 87.9869 32.8878 88.2021 32.9898 88.4455C33.0918 88.6892 33.3239 88.9042 33.5067 89.0922C34.4543 90.066 35.4603 90.9891 36.4292 91.9422C39.5206 94.9925 42.6295 98.0252 45.7556 101.04C48.5037 103.792 51.2818 106.513 54.0897 109.204C55.4072 110.489 56.6904 111.824 58.0468 113.067C58.3823 113.375 58.9126 113.871 59.3503 114.004C59.6778 114.103 60.0753 113.993 60.3695 113.844C61.3493 113.014 62.2153 112.017 63.0992 111.086C63.6993 110.455 64.3914 109.823 64.9178 109.131C65.1504 108.824 65.4439 108.4 65.4822 108.005C65.5228 107.587 65.0879 107.076 64.8217 106.786C64.2365 106.15 63.554 105.575 62.9184 104.988C61.524 103.701 60.1006 102.449 58.6912 101.179L49.0537 92.4083L46.0078 89.6917C45.3828 89.142 44.7042 88.6263 44.1595 87.9945C45.8821 86.2916 47.7698 84.7474 49.572 83.1299L59.7607 73.912L63.0514 70.917C63.5923 70.4252 64.1804 69.9572 64.6797 69.4231C64.9734 69.1089 65.399 68.6364 65.4042 68.1853C65.4147 67.273 64.5756 66.5283 63.9629 65.9541C63.0429 65.0917 60.7139 62.6314 59.7525 62.1419C59.4792 62.0027 59.1939 61.9853 58.8928 61.9669Z" fill="white"/>
<path d="M81.851 59.9759C82.8498 59.5114 83.9971 59.2486 85.0516 58.9195C86.6662 58.4158 88.2793 57.8625 89.9158 57.4358C89.9888 57.4295 90.1341 57.4139 90.2035 57.4222C90.3593 57.4406 90.4787 57.5339 90.5435 57.6753C90.6823 57.9778 90.5637 58.5212 90.5016 58.8398C90.2804 59.9775 89.9643 61.0964 89.7413 62.2329C86.9726 75.9147 84.0262 89.5598 80.9027 103.165L78.7672 112.758C78.5512 113.696 78.2649 115.667 77.8076 116.428C77.5669 116.829 70.6363 118.498 69.6276 118.77C69.5607 118.78 69.4504 118.801 69.3852 118.79C69.2671 118.771 69.1602 118.707 69.1008 118.604C68.9835 118.403 68.9902 118.202 69.0096 117.976C69.0749 117.209 69.3473 116.412 69.5304 115.665C69.8033 114.534 70.0663 113.401 70.3193 112.266L78.3294 76.5917L80.939 64.4033C81.2554 62.9315 81.4818 61.4348 81.851 59.9759Z" fill="#25904A"/>
<path d="M115.553 87.8926C114.549 86.5962 112.879 85.3247 111.652 84.2062C108.741 81.5276 105.813 78.8689 102.866 76.2297L98.2239 72.0562C97.295 71.2201 96.328 70.402 95.4402 69.5237C95.1633 69.2498 94.812 68.8995 94.6566 68.5425C94.5195 68.2275 94.5747 67.7811 94.7127 67.4747C95.0138 66.8058 98.9824 62.8423 99.7327 62.2212C99.9733 62.0222 100.224 61.9064 100.513 61.7928C100.947 61.8053 101.333 62.0179 101.655 62.2942C102.537 63.0508 103.327 63.9962 104.145 64.8258L109.282 70.0168C114.697 75.5918 120.197 81.0836 125.78 86.4898C126.296 86.984 126.967 87.4458 126.96 88.2262C126.958 88.5439 126.845 88.7367 126.634 88.9619C125.097 90.5948 123.396 92.1122 121.786 93.6773L113.517 101.778L104.675 110.495C103.769 111.383 102.904 112.336 101.975 113.198C101.435 113.698 101.003 113.966 100.248 113.942C100.174 113.91 100.1 113.88 100.027 113.846C99.5099 113.605 95.5495 109.641 95.0311 109.031C94.8053 108.765 94.5835 108.449 94.4758 108.114C94.4155 107.926 94.3827 107.762 94.475 107.58C94.9936 106.561 103.088 99.5011 104.655 98.0917L111.267 92.0837C112.456 91.012 114.795 89.2068 115.553 87.8926Z" fill="#25904A"/>
<path d="M60.3695 113.844C60.0753 113.993 59.6778 114.103 59.3503 114.004C58.9126 113.871 58.3823 113.375 58.0468 113.067C56.6904 111.824 55.4072 110.489 54.0896 109.204C51.2818 106.513 48.5037 103.792 45.7556 101.04C42.6295 98.0251 39.5206 94.9925 36.4292 91.9422C35.4603 90.989 34.4543 90.0659 33.5067 89.0922C33.3239 88.9042 33.0918 88.6892 32.9898 88.4455C32.8878 88.202 32.8912 87.9869 33.0125 87.7537C33.5876 86.6486 36.7625 83.8712 37.8136 82.8475L44.0217 76.7025C48.7184 72.005 53.2957 67.1725 58.0514 62.5362C58.3153 62.279 58.5415 62.0942 58.8928 61.9669C59.1939 61.9853 59.4792 62.0026 59.7525 62.1419C60.7139 62.6314 63.0429 65.0917 63.9629 65.954C64.5756 66.5283 65.4146 67.2729 65.4042 68.1853C65.399 68.6364 64.9734 69.1089 64.6796 69.4231C64.1804 69.9572 63.5923 70.4251 63.0514 70.917L59.7607 73.912L49.572 83.1298C47.7698 84.7473 45.8821 86.2915 44.1595 87.9945C44.7042 88.6262 45.3828 89.142 46.0078 89.6917L49.0537 92.4083L58.6912 101.179C60.1006 102.449 61.524 103.701 62.9184 104.988C63.554 105.575 64.2365 106.15 64.8217 106.786C65.0879 107.076 65.5228 107.587 65.4821 108.005C65.4439 108.4 65.1504 108.824 64.9178 109.131C64.3914 109.823 63.6993 110.455 63.0992 111.086C62.2153 112.017 61.3493 113.014 60.3695 113.844Z" fill="#25904A"/>
</svg>
