<svg width="49" height="49" viewBox="0 0 49 49" fill="none" xmlns="http://www.w3.org/2000/svg">
<g clip-path="url(#clip0_806_125)">
<path d="M24.4392 -3.20011e-05C33.9533 -0.0255528 42.2068 5.37466 46.285 13.281C46.6933 14.0722 46.1217 15.0164 45.2284 15.0164H36.5054C36.2757 15.0164 36.0563 14.9092 35.9031 14.7357C34.9487 13.623 33.8359 12.6532 32.5956 11.8569C30.0538 10.2236 26.9964 9.34059 23.7195 9.50393C15.9765 9.89184 9.72897 16.2721 9.48907 24.0202C9.22365 32.5339 16.0428 39.5164 24.4953 39.5164C31.5952 39.5164 37.5416 34.5909 39.1086 27.9657C39.1494 27.787 39.3076 27.6594 39.4914 27.6594H41.9209C42.171 27.6594 42.3599 27.8891 42.3089 28.129C40.5734 36.6632 32.861 43.0281 23.7348 42.6555C14.3329 42.2727 6.68688 34.6011 6.32959 25.1992C5.93657 14.8429 14.2206 6.31893 24.4953 6.31893C29.5025 6.31893 34.035 8.34528 37.3272 11.6171C37.4752 11.7651 37.6743 11.8467 37.8835 11.8467H40.8797C41.2115 11.8467 41.3952 11.4639 41.1859 11.1985C37.2813 6.29341 31.2532 3.14924 24.4953 3.14924C12.7098 3.14924 3.1548 12.7042 3.1548 24.4898C3.1548 36.2753 12.7047 45.8303 24.4953 45.8303C35.2039 45.8303 44.0698 37.9392 45.601 27.6543C45.7338 26.7509 45.8154 25.8322 45.8307 24.8981C45.8307 24.6786 45.6521 24.4949 45.4326 24.4949H31.2124C30.9929 24.4949 30.8194 24.3162 30.8194 24.1018V21.7284C30.8194 21.5089 30.998 21.3354 31.2124 21.3354H47.7244C48.342 21.3354 48.8575 21.8101 48.9085 22.4277C48.9647 23.1116 48.9953 23.8007 48.9953 24.5C48.9953 38.0311 38.0265 49 24.4953 49C11.1071 49 0.219906 38.2557 0.000426434 24.9185C-0.224157 11.3363 10.8519 0.0356972 24.4392 -3.20011e-05Z" fill="black"/>
</g>
<defs>
<clipPath id="clip0_806_125">
<rect width="49" height="49" fill="white"/>
</clipPath>
</defs>
</svg>
