<svg width="130" height="30" viewBox="0 0 130 30" fill="none" xmlns="http://www.w3.org/2000/svg">
<g clip-path="url(#clip0_810_137)">
<path d="M15.6365 5.51444e-05C21.7241 -0.0155699 27.0049 3.29068 29.6143 8.13131C29.8756 8.61568 29.5098 9.19381 28.9383 9.19381H23.357C23.21 9.19381 23.0696 9.12818 22.9716 9.02193C22.3609 8.34068 21.649 7.74693 20.8554 7.25943C19.229 6.25943 17.2727 5.71881 15.1761 5.81881C10.2218 6.05631 6.2244 9.96255 6.0709 14.7063C5.90108 19.9188 10.2642 24.1938 15.6725 24.1938C20.2153 24.1938 24.02 21.1782 25.0226 17.1219C25.0487 17.0126 25.1499 16.9344 25.2675 16.9344H26.822C26.9821 16.9344 27.1029 17.0751 27.0702 17.2219C25.9599 22.4469 21.0252 26.3438 15.1859 26.1157C9.17018 25.8813 4.27796 21.1844 4.04935 15.4282C3.79788 9.08755 9.09834 3.86881 15.6725 3.86881C18.8763 3.86881 21.7763 5.10943 23.8828 7.11256C23.9775 7.20318 24.1049 7.25318 24.2388 7.25318H26.1558C26.3681 7.25318 26.4857 7.01881 26.3518 6.85631C23.8534 3.85318 19.9964 1.92818 15.6725 1.92818C8.13165 1.92818 2.01799 7.77818 2.01799 14.9938C2.01799 22.2094 8.12838 28.0594 15.6725 28.0594C22.5242 28.0594 28.197 23.2282 29.1767 16.9313C29.2616 16.3782 29.3139 15.8157 29.3237 15.2438C29.3237 15.1094 29.2094 14.9969 29.0689 14.9969H19.9703C19.8299 14.9969 19.7188 14.8876 19.7188 14.7563V13.3032C19.7188 13.1688 19.8332 13.0626 19.9703 13.0626H30.5353C30.9305 13.0626 31.2603 13.3532 31.293 13.7313C31.3289 14.1501 31.3485 14.5719 31.3485 15.0001C31.3485 23.2844 24.3302 30.0001 15.6725 30.0001C7.10617 30.0001 0.140137 23.4219 -0.000294032 15.2563C-0.143991 6.94068 6.94288 0.0219301 15.6365 5.51444e-05Z" fill="#25904A"/>
<path d="M51.9104 12.447C51.4858 11.6657 50.898 11.0782 50.1468 10.6813C49.3957 10.2845 48.5237 10.0845 47.5374 10.0845C46.4564 10.0845 45.493 10.3188 44.6439 10.7813C43.798 11.247 43.1351 11.9063 42.6583 12.7626C42.1814 13.6188 41.9398 14.6063 41.9398 15.7313C41.9398 16.8563 42.1782 17.8501 42.6583 18.7126C43.1351 19.5751 43.798 20.2376 44.6439 20.7032C45.4897 21.1688 46.4532 21.4001 47.5374 21.4001C48.994 21.4001 50.1795 21.0095 51.0874 20.2313C51.9953 19.4501 52.5538 18.3938 52.7562 17.0595H46.6197V15.0126H55.6269V17.0157C55.4538 18.2313 55.0031 19.347 54.2749 20.3688C53.5466 21.3876 52.5962 22.2032 51.4303 22.8095C50.2611 23.4157 48.9646 23.722 47.5374 23.722C46.0025 23.722 44.5982 23.3813 43.3278 22.697C42.0573 22.0157 41.0515 21.0657 40.3069 19.8501C39.5622 18.6345 39.1899 17.2626 39.1899 15.7313C39.1899 14.2001 39.5622 12.8282 40.3069 11.6126C41.0515 10.397 42.0639 9.4501 43.3408 8.76572C44.6178 8.08447 46.0188 7.74072 47.5374 7.74072C49.2781 7.74072 50.8261 8.1501 52.1814 8.96572C53.5368 9.78447 54.5198 10.9407 55.1338 12.4407H51.9137L51.9104 12.447Z" fill="black"/>
<path d="M70.039 18.3409H60.1402C60.2186 19.3315 60.604 20.1252 61.2931 20.7252C61.9822 21.3252 62.828 21.6252 63.8339 21.6252C65.2774 21.6252 66.2963 21.0471 66.8907 19.894H69.7842C69.3923 21.0346 68.6837 21.969 67.6549 22.694C66.6294 23.4221 65.3558 23.7846 63.8339 23.7846C62.5961 23.7846 61.4858 23.519 60.506 22.9846C59.5262 22.4534 58.7588 21.7034 58.2003 20.7346C57.6451 19.7659 57.3643 18.6471 57.3643 17.3721C57.3643 16.0971 57.6353 14.9752 58.1742 14.0096C58.7163 13.0409 59.474 12.2971 60.4537 11.7721C61.4335 11.2471 62.5569 10.9846 63.8274 10.9846C65.0978 10.9846 66.1396 11.2409 67.0965 11.7502C68.0534 12.2596 68.798 12.9752 69.3303 13.9002C69.8626 14.8252 70.1304 15.8846 70.1304 17.0846C70.1304 17.5502 70.0978 17.969 70.0357 18.344L70.039 18.3409ZM67.3349 16.2721C67.3185 15.3284 66.9658 14.569 66.2767 14.0002C65.5876 13.4315 64.732 13.144 63.713 13.144C62.7888 13.144 61.9952 13.4252 61.3388 13.9877C60.6824 14.5502 60.2872 15.3127 60.1631 16.2721H67.3349Z" fill="black"/>
<path d="M72.9914 11.6126C73.736 10.397 74.7484 9.4501 76.0254 8.76572C77.3023 8.08447 78.7034 7.74072 80.222 7.74072C81.9627 7.74072 83.5107 8.1501 84.866 8.96572C86.2213 9.78447 87.2044 10.9407 87.8183 12.4407H84.5982C84.1737 11.6157 83.5858 11.0001 82.8347 10.597C82.0835 10.1938 81.2115 9.99072 80.2253 9.99072C79.1443 9.99072 78.1808 10.2251 77.3317 10.6876C76.4859 11.1532 75.8229 11.8188 75.3461 12.6907C74.8693 13.5595 74.6276 14.572 74.6276 15.7282C74.6276 16.8845 74.866 17.897 75.3461 18.7657C75.8229 19.6345 76.4859 20.3063 77.3317 20.7782C78.1776 21.2501 79.141 21.4876 80.2253 21.4876C81.2115 21.4876 82.0835 21.2845 82.8347 20.8813C83.5858 20.4782 84.1737 19.8626 84.5982 19.0376H87.8183C87.2076 20.5376 86.2246 21.6938 84.866 22.5032C83.5107 23.3126 81.9627 23.7188 80.222 23.7188C78.6871 23.7188 77.2827 23.3782 76.0123 22.6938C74.7419 22.0126 73.736 21.0626 72.9914 19.847C72.2468 18.6313 71.8745 17.2595 71.8745 15.7282C71.8745 14.197 72.2468 12.8251 72.9914 11.6095V11.6126Z" fill="black"/>
<path d="M95.1894 11.5127C95.8393 11.1596 96.6133 10.9846 97.5049 10.9846V13.6409H96.8224C95.7708 13.6409 94.9772 13.8971 94.435 14.4065C93.8929 14.9159 93.6251 15.8002 93.6251 17.0627V23.5877H90.9438V11.1909H93.6251V12.9909C94.017 12.3596 94.5363 11.869 95.1894 11.5159V11.5127Z" fill="black"/>
<path d="M99.892 14.0221C100.434 13.0627 101.169 12.3159 102.103 11.7846C103.037 11.2534 104.066 10.9846 105.196 10.9846C106.215 10.9846 107.103 11.1752 107.864 11.5596C108.625 11.9409 109.232 12.419 109.686 12.9877V11.1877H112.39V23.5846H109.686V21.7409C109.232 22.3252 108.612 22.8127 107.828 23.2034C107.044 23.594 106.149 23.7877 105.147 23.7877C104.033 23.7877 103.014 23.5127 102.09 22.9659C101.166 22.419 100.431 21.6534 99.892 20.6721C99.3498 19.6909 99.082 18.5752 99.082 17.3315C99.082 16.0877 99.3531 14.9846 99.892 14.0252V14.0221ZM109.134 15.1471C108.765 14.5159 108.285 14.0377 107.688 13.7065C107.093 13.3784 106.45 13.2127 105.761 13.2127C105.072 13.2127 104.428 13.3752 103.834 13.6971C103.236 14.019 102.756 14.4909 102.387 15.1159C102.018 15.7377 101.835 16.4784 101.835 17.3315C101.835 18.1846 102.018 18.9377 102.387 19.5815C102.756 20.2252 103.243 20.719 103.844 21.0565C104.448 21.394 105.085 21.5627 105.761 21.5627C106.437 21.5627 107.093 21.3971 107.688 21.069C108.282 20.7409 108.765 20.2565 109.134 19.619C109.503 18.9815 109.686 18.2346 109.686 17.3815C109.686 16.5284 109.503 15.7846 109.134 15.1534V15.1471Z" fill="black"/>
<path d="M121.349 13.2783H118.952V23.5845H116.248V13.2783H114.719V11.1845H116.248V10.3064C116.248 8.8814 116.643 7.8439 117.436 7.19077C118.227 6.53765 119.471 6.21265 121.163 6.21265V8.35015C120.346 8.35015 119.775 8.49702 119.445 8.78765C119.115 9.0814 118.952 9.58765 118.952 10.3064V11.1845H121.349V13.2783Z" fill="black"/>
<path d="M126.848 13.2783V20.1408C126.848 20.6064 126.962 20.9408 127.188 21.1408C127.416 21.3439 127.802 21.4439 128.35 21.4439H129.996V23.5814H127.88C126.672 23.5814 125.748 23.3126 125.104 22.772C124.461 22.2314 124.141 21.3533 124.141 20.1408V13.2783H122.612V11.1845H124.141V8.10327H126.845V11.1845H129.996V13.2783H126.845H126.848Z" fill="black"/>
</g>
<defs>
<clipPath id="clip0_810_137">
<rect width="130" height="30" fill="white"/>
</clipPath>
</defs>
</svg>
