<svg width="45" height="45" viewBox="0 0 45 45" fill="none" xmlns="http://www.w3.org/2000/svg">
<g filter="url(#filter0_b_184_566)">
<rect width="45" height="45" rx="22.5" fill="#AFAFAF" fill-opacity="0.3"/>
<path d="M20.4974 11.1136C19.3191 11.3188 18.2003 11.7028 17.1698 12.239C16.1172 12.7862 15.1595 13.4924 14.3254 14.3265C13.2574 15.3945 12.399 16.6678 11.8142 18.0778C11.2515 19.4371 10.9404 20.9311 10.9404 22.5C10.9404 24.0711 11.2515 25.5629 11.8142 26.9244C12.399 28.3344 13.2574 29.6077 14.3254 30.6757C15.2434 31.5915 16.3114 32.355 17.4875 32.9221C18.4497 33.3855 19.4846 33.7187 20.5725 33.9019V24.3622V21.3858H24.4275V33.9173H24.4319V37.5804L23.9156 37.6289C23.675 37.651 23.4389 37.6686 23.2072 37.6797C22.9491 37.6907 22.7129 37.6973 22.4989 37.6973C20.4445 37.6973 18.4828 37.2869 16.6909 36.5455C14.8285 35.7731 13.1536 34.6433 11.7546 33.2465C10.3556 31.8475 9.22798 30.1726 8.45565 28.3102C7.7142 26.5183 7.30376 24.5544 7.30376 22.5C7.30376 20.4456 7.7142 18.4839 8.45565 16.692C9.22798 14.8274 10.3556 13.1548 11.7546 11.7557C12.8977 10.6127 14.2283 9.64835 15.6979 8.91133C17.1279 8.19416 18.6858 7.69545 20.3231 7.46154L20.9697 7.36886V11.0297L20.4974 11.1136Z" fill="#1A1A1A"/>
<path d="M22.4989 7.30487C24.5555 7.30487 26.5172 7.71531 28.3091 8.45675C30.1715 9.22909 31.8463 10.3567 33.2454 11.7557C34.6444 13.1548 35.772 14.8274 36.5443 16.692C37.2858 18.4839 37.6962 20.4456 37.6962 22.5C37.6962 24.5544 37.2858 26.5183 36.5443 28.3102C35.772 30.1726 34.6444 31.8475 33.2454 33.2465C32.1023 34.3895 30.7717 35.3516 29.3043 36.0887C27.8743 36.8058 26.9078 37.1677 25.2396 37.4524L25.1999 33.7496C26.7401 33.3281 26.8041 33.2972 27.8324 32.761C28.8828 32.2138 29.8427 31.5076 30.6746 30.6757C31.7426 29.6077 32.601 28.3344 33.1858 26.9244C33.7485 25.5629 34.0596 24.0711 34.0596 22.5C34.0596 20.9311 33.7485 19.4371 33.1858 18.0778C32.601 16.6678 31.7426 15.3945 30.6746 14.3265C29.6066 13.2585 28.3333 12.4001 26.9233 11.8153C25.564 11.2526 24.07 10.9415 22.4989 10.9415C22.0642 10.9415 22.1811 10.9326 21.731 10.9569C21.7221 9.90874 21.7508 8.18313 21.795 7.32252C22.0531 7.31149 22.2871 7.30487 22.4989 7.30487Z" fill="#1A1A1A"/>
</g>
<defs>
<filter id="filter0_b_184_566" x="-70" y="-70" width="185" height="185" filterUnits="userSpaceOnUse" color-interpolation-filters="sRGB">
<feFlood flood-opacity="0" result="BackgroundImageFix"/>
<feGaussianBlur in="BackgroundImageFix" stdDeviation="35"/>
<feComposite in2="SourceAlpha" operator="in" result="effect1_backgroundBlur_184_566"/>
<feBlend mode="normal" in="SourceGraphic" in2="effect1_backgroundBlur_184_566" result="shape"/>
</filter>
</defs>
</svg>
