<svg width="32" height="30" viewBox="0 0 32 30" fill="none" xmlns="http://www.w3.org/2000/svg">
<path d="M15.6365 5.51444e-05C21.7241 -0.0155699 27.0049 3.29068 29.6143 8.13131C29.8756 8.61568 29.5098 9.19381 28.9383 9.19381H23.357C23.21 9.19381 23.0696 9.12818 22.9716 9.02193C22.3609 8.34068 21.649 7.74693 20.8554 7.25943C19.229 6.25943 17.2727 5.71881 15.1761 5.81881C10.2218 6.05631 6.2244 9.96255 6.0709 14.7063C5.90108 19.9188 10.2642 24.1938 15.6725 24.1938C20.2153 24.1938 24.02 21.1782 25.0226 17.1219C25.0487 17.0126 25.1499 16.9344 25.2675 16.9344H26.822C26.9821 16.9344 27.1029 17.0751 27.0702 17.2219C25.9599 22.4469 21.0252 26.3438 15.1859 26.1157C9.17018 25.8813 4.27796 21.1844 4.04935 15.4282C3.79788 9.08755 9.09834 3.86881 15.6725 3.86881C18.8763 3.86881 21.7763 5.10943 23.8828 7.11256C23.9775 7.20318 24.1049 7.25318 24.2388 7.25318H26.1558C26.3681 7.25318 26.4857 7.01881 26.3518 6.85631C23.8534 3.85318 19.9964 1.92818 15.6725 1.92818C8.13165 1.92818 2.01799 7.77818 2.01799 14.9938C2.01799 22.2094 8.12838 28.0594 15.6725 28.0594C22.5242 28.0594 28.197 23.2282 29.1767 16.9313C29.2616 16.3782 29.3139 15.8157 29.3237 15.2438C29.3237 15.1094 29.2094 14.9969 29.0689 14.9969H19.9703C19.8299 14.9969 19.7188 14.8876 19.7188 14.7563V13.3032C19.7188 13.1688 19.8332 13.0626 19.9703 13.0626H30.5353C30.9305 13.0626 31.2603 13.3532 31.293 13.7313C31.3289 14.1501 31.3485 14.5719 31.3485 15.0001C31.3485 23.2844 24.3302 30.0001 15.6725 30.0001C7.10617 30.0001 0.140137 23.4219 -0.000294032 15.2563C-0.143991 6.94068 6.94288 0.0219301 15.6365 5.51444e-05Z" fill="#25904A"/>
</svg>
