<svg width="57" height="57" viewBox="0 0 57 57" fill="none" xmlns="http://www.w3.org/2000/svg">
<path d="M46.8239 10.1744C42.1347 5.48515 35.658 2.58337 28.4983 2.58337C21.3419 2.58337 14.8652 5.48515 10.1727 10.1744C5.48347 14.8636 2.58496 21.3436 2.58496 28.5C2.58496 35.6564 5.48347 42.1364 10.1727 46.8256C14.8652 51.5148 21.3419 54.4166 28.4983 54.4166C35.658 54.4166 42.1347 51.5181 46.8239 46.8256C51.5164 42.1364 54.4149 35.6564 54.4149 28.5C54.4149 21.3436 51.5164 14.8669 46.8239 10.1744ZM28.4983 5.99819C31.5439 5.99819 34.4489 6.60599 37.1023 7.70396C39.8603 8.84767 42.3405 10.5175 44.4123 12.5893C46.4841 14.661 48.1539 17.138 49.2976 19.8992C50.3956 22.5527 51.0034 25.4577 51.0034 28.5C51.0034 31.5423 50.3956 34.4506 49.2976 37.104C48.1539 39.862 46.4841 42.3422 44.4123 44.414C42.7196 46.1067 40.7491 47.5314 38.5761 48.6229C36.4586 49.6849 35.0273 50.2208 32.5569 50.6423L32.4981 45.159C34.7789 44.5349 34.8737 44.4892 36.3965 43.6951C37.9519 42.8847 39.3734 41.839 40.6054 40.6071C42.187 39.0255 43.4581 37.14 44.3241 35.0519C45.1574 33.0356 45.6181 30.8266 45.6181 28.5C45.6181 26.1766 45.1574 23.9643 44.3241 21.9514C43.4581 19.8633 42.187 17.9778 40.6054 16.3962C39.0238 14.8146 37.1383 13.5434 35.0502 12.6775C33.0372 11.8442 30.825 11.3835 28.4983 11.3835C27.8546 11.3835 28.0278 11.3704 27.3611 11.4063C27.3481 9.85414 27.3905 7.29875 27.4559 6.02433C27.8382 6.00799 28.1846 5.99819 28.4983 5.99819ZM25.5345 11.6383C23.7895 11.9422 22.1327 12.5108 20.6067 13.3049C19.0479 14.1153 17.6297 15.161 16.3945 16.3962C14.8129 17.9778 13.5418 19.8633 12.6758 21.9514C11.8425 23.9643 11.3818 26.1766 11.3818 28.5C11.3818 30.8266 11.8425 33.0356 12.6758 35.0519C13.5418 37.14 14.8129 39.0255 16.3945 40.6071C17.7539 41.9632 19.3355 43.0938 21.0772 43.9336C22.502 44.6199 24.0345 45.1133 25.6456 45.3845V35.0878H31.3543V45.4074H31.3609V50.8319L30.5962 50.9038C30.24 50.9364 29.8904 50.9626 29.5473 50.9789C29.1649 50.9953 28.8153 51.0051 28.4983 51.0051C25.456 51.0051 22.551 50.3973 19.8976 49.2993C17.1396 48.1556 14.6593 46.4825 12.5876 44.414C10.5158 42.3422 8.84599 39.862 7.70228 37.104C6.60431 34.4506 5.9965 31.5423 5.9965 28.5C5.9965 25.4577 6.60431 22.5527 7.70228 19.8992C8.84599 17.138 10.5158 14.661 12.5876 12.5893C14.2803 10.8966 16.2507 9.46855 18.4271 8.37712C20.5446 7.31509 22.8516 6.57658 25.2763 6.2302L26.2338 6.09295V11.5142L25.5345 11.6383Z" fill="#1A1A1A"/>
<path d="M28.4982 0.501831C32.2888 0.501831 35.9029 1.25668 39.2034 2.62261C42.6345 4.04409 45.7193 6.12238 48.2976 8.70391C50.8758 11.2822 52.9574 14.3669 54.3756 17.7948C55.7448 21.0953 56.4996 24.7127 56.4996 28.5C56.4996 32.2906 55.7448 35.9048 54.3756 39.2052C52.9574 42.6364 50.8758 45.7211 48.2976 48.2994C45.7193 50.8777 42.6345 52.9559 39.2034 54.3774C35.9029 55.7433 32.2888 56.4982 28.4982 56.4982C24.7108 56.4982 21.0934 55.7433 17.793 54.3774C14.3651 52.9559 11.2803 50.8777 8.70208 48.2994C6.12382 45.7211 4.04225 42.6364 2.62405 39.2052C1.25485 35.9048 0.5 32.2906 0.5 28.5C0.5 24.7127 1.25485 21.0953 2.62405 17.7948C4.04225 14.3669 6.12382 11.2822 8.70208 8.70391C11.2803 6.12238 14.3651 4.04409 17.793 2.62261C21.0934 1.25668 24.7108 0.501831 28.4982 0.501831ZM38.7818 3.65522C35.6154 2.34485 32.145 1.62267 28.4982 1.62267C24.8546 1.62267 21.3843 2.34485 18.2178 3.65522C14.9337 5.01788 11.9731 7.01448 9.49288 9.49471C7.01265 11.9749 5.01605 14.9355 3.65339 18.2196C2.34302 21.3828 1.62084 24.8565 1.62084 28.5C1.62084 32.1468 2.34302 35.6172 3.65339 38.7837C5.01605 42.0678 7.01265 45.0284 9.49288 47.5086C11.9731 49.9888 14.9337 51.9854 18.2178 53.3448C21.3843 54.6585 24.8546 55.3806 28.4982 55.3806C32.145 55.3806 35.6154 54.6585 38.7818 53.3448C42.0659 51.9854 45.0265 49.9888 47.5068 47.5086C49.987 45.0284 51.9836 42.0678 53.3462 38.7837C54.6566 35.6172 55.3788 32.1468 55.3788 28.5C55.3788 24.8565 54.6566 21.3828 53.3462 18.2196C51.9836 14.9355 49.987 11.9749 47.5068 9.49471C45.0265 7.01448 42.0659 5.01788 38.7818 3.65522Z" fill="#1A1A1A"/>
</svg>
